<svg id="svg" version="1.1" xmlns="http://www.w3.org/2000/svg" xmlns:xlink="http://www.w3.org/1999/xlink" width="400" height="400" viewBox="0, 0, 400,400"><g id="svgg"><path id="path0" d="M181.400 138.000 L 162.200 138.200 162.093 147.500 L 161.985 156.800 199.950 156.800 C 234.200 156.800,237.938 156.738,238.157 156.167 C 238.663 154.848,238.428 138.384,237.900 138.212 C 237.024 137.927,201.293 137.793,181.400 138.000 M193.800 176.780 L 187.400 177.000 187.303 189.000 C 187.249 195.600,187.339 201.206,187.503 201.457 C 187.712 201.778,191.484 201.957,200.200 202.057 L 212.600 202.200 212.600 189.400 L 212.600 176.600 206.400 176.580 C 202.990 176.569,197.320 176.659,193.800 176.780 M73.294 189.300 L 73.400 201.800 85.900 201.906 L 98.400 202.011 98.400 189.406 L 98.400 176.800 85.794 176.800 L 73.189 176.800 73.294 189.300 M111.294 189.294 L 111.400 201.800 123.891 201.906 L 136.382 202.011 136.603 201.106 C 136.725 200.608,136.774 194.980,136.712 188.600 L 136.600 177.000 123.894 176.894 L 111.189 176.789 111.294 189.294 M149.294 189.294 L 149.400 201.800 161.552 201.906 C 170.258 201.982,173.861 201.882,174.258 201.552 C 174.712 201.175,174.792 198.917,174.706 189.046 L 174.600 177.000 161.894 176.894 L 149.189 176.789 149.294 189.294 M225.294 189.300 L 225.400 201.800 238.000 201.800 L 250.600 201.800 250.706 189.300 L 250.811 176.800 238.000 176.800 L 225.189 176.800 225.294 189.300 M263.381 177.304 C 263.275 177.582,263.236 183.207,263.294 189.804 L 263.400 201.800 276.100 201.906 L 288.800 202.011 288.800 189.406 L 288.800 176.800 276.187 176.800 C 266.408 176.800,263.531 176.913,263.381 177.304 M301.600 189.406 L 301.600 202.011 314.100 201.906 L 326.600 201.800 326.706 189.300 L 326.811 176.800 314.206 176.800 L 301.600 176.800 301.600 189.406 M92.243 213.833 C 92.109 214.181,92.000 219.656,92.000 226.000 C 92.000 232.344,92.109 237.819,92.243 238.167 C 92.560 238.994,116.301 239.139,117.120 238.320 C 117.939 237.501,117.794 213.760,116.967 213.443 C 115.354 212.824,92.492 213.184,92.243 213.833 M130.584 213.698 C 130.476 213.979,130.436 219.696,130.494 226.404 L 130.600 238.600 143.000 238.600 L 155.400 238.600 155.400 226.000 L 155.400 213.400 143.090 213.294 C 133.405 213.211,130.738 213.297,130.584 213.698 M168.480 213.680 C 167.545 214.615,167.822 237.876,168.774 238.386 C 169.605 238.831,191.844 238.988,192.967 238.557 C 193.526 238.343,193.600 236.839,193.600 225.757 L 193.600 213.200 181.280 213.200 C 172.231 213.200,168.833 213.327,168.480 213.680 M206.494 225.900 L 206.600 238.600 218.752 238.706 C 227.385 238.781,231.062 238.680,231.452 238.357 C 232.334 237.625,232.253 213.783,231.367 213.443 C 231.019 213.309,225.257 213.200,218.562 213.200 L 206.389 213.200 206.494 225.900 M244.581 213.704 C 244.475 213.981,244.436 219.696,244.494 226.404 L 244.600 238.600 256.752 238.706 C 265.385 238.781,269.062 238.680,269.452 238.357 C 270.140 237.786,270.264 215.241,269.586 213.974 C 269.065 213.000,244.951 212.740,244.581 213.704 M282.672 213.461 C 282.022 214.111,282.370 238.303,283.033 238.557 C 283.381 238.691,289.047 238.800,295.625 238.800 L 307.585 238.800 307.804 237.900 C 307.925 237.405,307.974 231.690,307.912 225.200 L 307.800 213.400 295.372 213.294 C 288.537 213.236,282.822 213.311,282.672 213.461 M73.381 250.504 C 73.275 250.782,73.236 256.407,73.294 263.004 L 73.400 275.000 85.900 275.106 L 98.400 275.211 98.400 262.606 L 98.400 250.000 85.987 250.000 C 76.369 250.000,73.531 250.114,73.381 250.504 M111.200 262.600 L 111.200 275.211 123.900 275.106 L 136.600 275.000 136.600 262.600 L 136.600 250.200 123.900 250.094 L 111.200 249.989 111.200 262.600 M149.467 250.267 C 149.320 250.413,149.200 256.061,149.200 262.816 L 149.200 275.100 199.560 275.398 C 227.258 275.562,250.118 275.574,250.360 275.425 C 250.665 275.236,250.800 271.293,250.800 262.576 L 250.800 250.000 200.267 250.000 C 172.473 250.000,149.613 250.120,149.467 250.267 M263.381 250.504 C 263.275 250.782,263.236 256.407,263.294 263.004 L 263.400 275.000 276.100 275.106 L 288.800 275.211 288.800 262.606 L 288.800 250.000 276.187 250.000 C 266.408 250.000,263.531 250.113,263.381 250.504 M301.600 262.600 L 301.600 275.200 314.200 275.200 L 326.800 275.200 326.800 262.600 L 326.800 250.000 314.200 250.000 L 301.600 250.000 301.600 262.600 " stroke="none" fill="#07afbd" fill-rule="evenodd"></path><path id="path1" d="M193.915 18.700 C 193.764 43.303,196.215 40.525,174.400 40.817 C 162.160 40.982,157.907 41.165,157.000 41.568 C 151.897 43.836,149.495 45.691,147.397 48.988 C 140.485 59.852,147.202 73.956,160.099 75.657 C 161.902 75.895,178.326 75.935,203.479 75.763 C 244.901 75.479,244.461 75.468,247.482 76.898 C 249.390 77.802,250.148 81.325,248.968 83.810 C 247.576 86.745,247.164 86.800,226.533 86.800 C 213.729 86.800,207.829 86.939,206.828 87.265 C 204.327 88.079,203.200 88.587,203.200 88.898 C 203.200 89.064,202.971 89.200,202.692 89.200 C 201.901 89.200,198.476 92.345,197.120 94.316 C 194.215 98.539,194.266 98.120,194.097 119.100 L 193.944 138.000 195.710 138.000 C 196.681 138.000,199.394 137.883,201.738 137.739 L 206.000 137.478 206.000 119.877 L 206.000 102.276 207.024 100.933 C 208.956 98.400,208.957 98.400,229.154 98.400 C 249.109 98.400,248.732 98.439,253.132 95.938 C 256.541 94.002,260.800 88.463,260.800 85.967 C 260.800 85.571,260.980 85.136,261.200 85.000 C 261.750 84.660,261.705 78.981,261.138 77.228 C 259.632 72.570,256.098 67.928,252.758 66.223 C 248.691 64.146,251.076 64.254,203.982 64.019 C 163.051 63.814,160.093 63.754,159.090 63.096 C 155.950 61.038,155.944 55.885,159.080 53.759 C 160.120 53.054,161.355 52.985,176.400 52.783 C 188.644 52.619,192.893 52.436,193.800 52.032 C 197.517 50.380,198.757 49.609,200.607 47.800 C 205.594 42.923,205.968 40.869,205.986 18.300 L 206.000 0.000 200.015 0.000 L 194.030 0.000 193.915 18.700 M64.600 157.330 C 60.284 158.472,56.474 161.612,54.672 165.513 L 53.800 167.400 53.800 227.400 L 53.800 287.400 54.899 289.485 C 56.950 293.376,59.188 295.333,63.302 296.837 C 65.703 297.715,335.260 298.074,335.800 297.200 C 335.936 296.980,336.369 296.800,336.762 296.800 C 340.298 296.800,345.308 290.657,346.358 285.033 C 347.074 281.197,346.971 172.617,346.248 169.161 C 345.174 164.029,342.563 160.534,338.248 158.453 L 335.694 157.221 201.147 157.011 C 90.303 156.838,66.248 156.894,64.600 157.330 M212.600 189.400 L 212.600 202.200 200.200 202.057 C 191.484 201.957,187.712 201.778,187.503 201.457 C 187.339 201.206,187.249 195.600,187.303 189.000 L 187.400 177.000 193.800 176.780 C 197.320 176.659,202.990 176.569,206.400 176.580 L 212.600 176.600 212.600 189.400 M98.400 189.406 L 98.400 202.011 85.900 201.906 L 73.400 201.800 73.294 189.300 L 73.189 176.800 85.794 176.800 L 98.400 176.800 98.400 189.406 M136.712 188.600 C 136.774 194.980,136.725 200.608,136.603 201.106 L 136.382 202.011 123.891 201.906 L 111.400 201.800 111.294 189.294 L 111.189 176.789 123.894 176.894 L 136.600 177.000 136.712 188.600 M174.706 189.046 C 174.792 198.917,174.712 201.175,174.258 201.552 C 173.861 201.882,170.258 201.982,161.552 201.906 L 149.400 201.800 149.294 189.294 L 149.189 176.789 161.894 176.894 L 174.600 177.000 174.706 189.046 M250.706 189.300 L 250.600 201.800 238.000 201.800 L 225.400 201.800 225.294 189.300 L 225.189 176.800 238.000 176.800 L 250.811 176.800 250.706 189.300 M288.800 189.406 L 288.800 202.011 276.100 201.906 L 263.400 201.800 263.294 189.804 C 263.236 183.207,263.275 177.582,263.381 177.304 C 263.531 176.913,266.408 176.800,276.187 176.800 L 288.800 176.800 288.800 189.406 M326.706 189.300 L 326.600 201.800 314.100 201.906 L 301.600 202.011 301.600 189.406 L 301.600 176.800 314.206 176.800 L 326.811 176.800 326.706 189.300 M116.967 213.443 C 117.794 213.760,117.939 237.501,117.120 238.320 C 116.301 239.139,92.560 238.994,92.243 238.167 C 92.109 237.819,92.000 232.344,92.000 226.000 C 92.000 219.656,92.109 214.181,92.243 213.833 C 92.492 213.184,115.354 212.824,116.967 213.443 M155.400 226.000 L 155.400 238.600 143.000 238.600 L 130.600 238.600 130.494 226.404 C 130.436 219.696,130.476 213.979,130.584 213.698 C 130.738 213.297,133.405 213.211,143.090 213.294 L 155.400 213.400 155.400 226.000 M193.600 225.757 C 193.600 236.839,193.526 238.343,192.967 238.557 C 191.844 238.988,169.605 238.831,168.774 238.386 C 167.822 237.876,167.545 214.615,168.480 213.680 C 168.833 213.327,172.231 213.200,181.280 213.200 L 193.600 213.200 193.600 225.757 M231.367 213.443 C 232.253 213.783,232.334 237.625,231.452 238.357 C 231.062 238.680,227.385 238.781,218.752 238.706 L 206.600 238.600 206.494 225.900 L 206.389 213.200 218.562 213.200 C 225.257 213.200,231.019 213.309,231.367 213.443 M269.586 213.974 C 270.264 215.241,270.140 237.786,269.452 238.357 C 269.062 238.680,265.385 238.781,256.752 238.706 L 244.600 238.600 244.494 226.404 C 244.436 219.696,244.475 213.981,244.581 213.704 C 244.951 212.740,269.065 213.000,269.586 213.974 M307.912 225.200 C 307.974 231.690,307.925 237.405,307.804 237.900 L 307.585 238.800 295.625 238.800 C 289.047 238.800,283.381 238.691,283.033 238.557 C 282.370 238.303,282.022 214.111,282.672 213.461 C 282.822 213.311,288.537 213.236,295.372 213.294 L 307.800 213.400 307.912 225.200 M98.400 262.606 L 98.400 275.211 85.900 275.106 L 73.400 275.000 73.294 263.004 C 73.236 256.407,73.275 250.782,73.381 250.504 C 73.531 250.114,76.369 250.000,85.987 250.000 L 98.400 250.000 98.400 262.606 M136.600 262.600 L 136.600 275.000 123.900 275.106 L 111.200 275.211 111.200 262.600 L 111.200 249.989 123.900 250.094 L 136.600 250.200 136.600 262.600 M250.800 262.576 C 250.800 271.293,250.665 275.236,250.360 275.425 C 250.118 275.574,227.258 275.562,199.560 275.398 L 149.200 275.100 149.200 262.816 C 149.200 256.061,149.320 250.413,149.467 250.267 C 149.613 250.120,172.473 250.000,200.267 250.000 L 250.800 250.000 250.800 262.576 M288.800 262.606 L 288.800 275.211 276.100 275.106 L 263.400 275.000 263.294 263.004 C 263.236 256.407,263.275 250.782,263.381 250.504 C 263.531 250.113,266.408 250.000,276.187 250.000 L 288.800 250.000 288.800 262.606 M326.800 262.600 L 326.800 275.200 314.200 275.200 L 301.600 275.200 301.600 262.600 L 301.600 250.000 314.200 250.000 L 326.800 250.000 326.800 262.600 " stroke="none" fill="#faf6d0" fill-rule="evenodd"></path><path id="path2" d="M206.400 20.101 C 206.400 40.210,206.315 41.090,203.997 44.901 C 202.944 46.633,199.205 50.400,198.539 50.400 C 198.243 50.400,198.000 50.536,198.000 50.702 C 198.000 50.869,197.415 51.244,196.700 51.536 C 195.985 51.828,195.040 52.217,194.600 52.400 C 192.165 53.414,189.187 53.600,175.403 53.600 C 159.580 53.600,159.252 53.641,157.859 55.765 C 156.431 57.946,157.128 60.637,159.703 62.884 C 159.757 62.931,179.816 63.066,204.280 63.184 C 239.097 63.353,248.869 63.509,249.260 63.900 C 249.535 64.175,250.129 64.404,250.580 64.409 C 251.031 64.414,251.850 64.770,252.400 65.200 C 252.950 65.630,253.609 65.986,253.865 65.991 C 254.710 66.007,259.187 70.764,259.894 72.397 C 260.276 73.279,260.726 74.000,260.894 74.000 C 261.062 74.000,261.200 74.529,261.200 75.176 C 261.200 75.823,261.380 76.464,261.600 76.600 C 261.829 76.742,262.000 78.804,262.000 81.424 C 262.000 84.208,261.843 86.000,261.600 86.000 C 261.380 86.000,261.200 86.540,261.200 87.200 C 261.200 87.860,261.020 88.400,260.800 88.400 C 260.580 88.400,260.400 88.760,260.400 89.200 C 260.400 89.640,260.220 90.000,260.000 90.000 C 259.780 90.000,259.600 90.260,259.600 90.578 C 259.600 91.330,254.530 96.400,253.778 96.400 C 253.460 96.400,253.199 96.535,253.197 96.700 C 253.193 97.088,251.231 98.000,250.400 98.000 C 250.048 98.000,249.535 98.225,249.260 98.500 C 248.879 98.881,244.066 99.048,229.061 99.200 L 209.363 99.400 208.381 100.422 C 206.360 102.527,206.400 102.132,206.400 120.195 L 206.400 137.200 221.500 137.205 C 229.805 137.208,237.005 137.319,237.500 137.452 L 238.400 137.693 238.400 146.847 L 238.400 156.000 285.600 156.000 C 316.800 156.000,332.800 156.136,332.800 156.400 C 332.800 156.620,333.612 156.800,334.605 156.800 C 335.598 156.800,336.723 156.965,337.105 157.166 C 337.487 157.368,338.492 157.834,339.338 158.203 C 341.032 158.941,344.800 162.555,344.800 163.441 C 344.800 163.748,344.935 164.001,345.100 164.003 C 345.543 164.008,346.400 166.021,346.400 167.056 C 346.400 167.549,346.580 168.064,346.800 168.200 C 347.064 168.363,347.200 188.530,347.200 227.400 C 347.200 266.270,347.064 286.437,346.800 286.600 C 346.580 286.736,346.400 287.377,346.400 288.024 C 346.400 288.671,346.220 289.200,346.000 289.200 C 345.780 289.200,345.600 289.560,345.600 290.000 C 345.600 290.440,345.420 290.800,345.200 290.800 C 344.980 290.800,344.800 291.035,344.800 291.322 C 344.800 292.645,339.268 297.200,337.661 297.200 C 337.224 297.200,336.792 297.425,336.700 297.700 C 336.485 298.343,64.100 298.166,63.313 297.522 C 63.046 297.303,62.644 297.186,62.419 297.262 C 62.195 297.338,70.876 306.310,81.710 317.200 C 145.303 381.124,159.600 395.582,159.600 395.969 C 159.600 396.225,160.496 396.400,161.800 396.400 C 163.104 396.400,164.000 396.575,164.000 396.831 C 164.000 397.068,164.585 397.229,165.300 397.190 C 167.558 397.067,168.455 397.188,168.210 397.584 C 168.066 397.817,169.004 397.935,170.599 397.884 C 172.489 397.823,173.323 397.957,173.573 398.360 C 173.828 398.769,174.401 398.854,175.702 398.675 C 177.729 398.398,180.485 398.739,180.181 399.230 C 179.972 399.570,183.977 399.658,200.000 399.667 C 217.756 399.678,220.457 399.615,220.200 399.200 C 219.888 398.695,221.391 398.582,224.979 398.841 C 225.627 398.888,226.227 398.718,226.312 398.463 C 226.404 398.187,227.353 398.000,228.657 398.000 C 230.015 398.000,230.753 398.152,230.600 398.400 C 230.464 398.620,230.542 398.800,230.773 398.800 C 231.004 398.800,231.418 398.440,231.693 398.000 C 232.090 397.365,232.626 397.200,234.296 397.200 C 235.453 397.200,236.400 397.020,236.400 396.800 C 236.400 396.580,237.390 396.400,238.600 396.400 C 239.810 396.400,240.800 396.220,240.800 396.000 C 240.800 395.780,241.520 395.600,242.400 395.600 C 243.280 395.600,244.000 395.420,244.000 395.200 C 244.000 394.980,244.720 394.800,245.600 394.800 C 246.480 394.800,247.200 394.620,247.200 394.400 C 247.200 394.180,248.010 394.000,249.000 394.000 C 250.052 394.000,250.800 393.816,250.800 393.556 C 250.800 393.287,251.334 393.175,252.155 393.271 C 253.139 393.386,253.455 393.288,253.312 392.914 C 253.173 392.554,253.546 392.400,254.557 392.400 C 255.351 392.400,256.000 392.220,256.000 392.000 C 256.000 391.780,256.630 391.600,257.400 391.600 C 258.170 391.600,258.800 391.420,258.800 391.200 C 258.800 390.980,259.329 390.800,259.976 390.800 C 260.623 390.800,261.264 390.620,261.400 390.400 C 261.536 390.180,262.097 390.000,262.647 390.000 C 263.301 390.000,263.548 390.160,263.362 390.462 C 263.189 390.741,263.252 390.815,263.521 390.649 C 263.765 390.498,263.854 390.086,263.719 389.732 C 263.517 389.206,263.700 389.124,264.736 389.276 C 265.613 389.405,266.000 389.299,266.000 388.931 C 266.000 388.608,266.470 388.400,267.200 388.400 C 267.860 388.400,268.400 388.199,268.400 387.953 C 268.400 387.693,268.816 387.586,269.400 387.698 C 270.071 387.826,270.400 387.710,270.400 387.345 C 270.400 387.030,270.823 386.800,271.400 386.800 C 271.950 386.800,272.400 386.620,272.400 386.400 C 272.400 385.825,273.495 385.906,273.740 386.500 C 273.864 386.800,274.058 386.632,274.225 386.079 C 274.422 385.430,274.755 385.195,275.352 385.282 C 275.818 385.350,276.392 385.160,276.627 384.859 C 276.984 384.402,277.165 384.422,277.727 384.985 C 278.359 385.616,278.395 385.600,278.300 384.729 C 278.219 383.973,278.367 383.823,279.100 383.925 C 279.595 383.994,280.000 383.859,280.000 383.625 C 280.000 383.391,280.345 383.200,280.767 383.200 C 281.188 383.200,281.597 383.010,281.674 382.778 C 281.751 382.546,282.081 382.303,282.407 382.239 C 282.733 382.174,283.315 381.984,283.700 381.818 C 284.085 381.651,284.661 381.614,284.980 381.737 C 285.367 381.885,285.485 381.767,285.337 381.380 C 285.056 380.649,286.629 380.572,286.963 381.300 C 287.089 381.575,287.092 381.395,286.969 380.900 C 286.792 380.185,286.916 380.000,287.573 380.000 C 288.028 380.000,288.400 379.799,288.400 379.553 C 288.400 379.297,288.811 379.185,289.363 379.291 C 289.957 379.404,290.264 379.307,290.163 379.038 C 290.073 378.797,290.486 378.375,291.080 378.100 C 292.450 377.465,292.925 377.465,292.559 378.100 C 292.392 378.390,292.424 378.460,292.636 378.267 C 292.836 378.083,293.004 377.723,293.010 377.467 C 293.015 377.210,293.330 377.025,293.710 377.056 C 294.089 377.086,294.400 376.861,294.400 376.556 C 294.400 376.250,294.760 376.000,295.200 376.000 C 295.640 376.000,296.000 375.820,296.000 375.600 C 296.000 375.380,296.270 375.200,296.600 375.200 C 296.930 375.200,297.200 375.054,297.200 374.875 C 297.200 374.696,297.830 374.302,298.600 374.000 C 299.370 373.698,300.000 373.304,300.000 373.125 C 300.000 372.605,301.113 372.750,301.335 373.300 C 301.446 373.575,301.551 373.395,301.568 372.900 C 301.587 372.381,301.854 372.000,302.200 372.000 C 302.530 372.000,302.800 371.820,302.800 371.600 C 302.800 371.380,303.070 371.200,303.400 371.200 C 303.730 371.200,304.000 371.012,304.000 370.782 C 304.000 370.553,304.253 370.418,304.562 370.482 C 304.871 370.547,305.456 370.238,305.862 369.794 C 306.268 369.351,307.308 368.631,308.174 368.194 C 309.040 367.758,310.075 367.085,310.474 366.700 C 310.873 366.315,311.470 366.000,311.800 366.000 C 312.130 366.000,312.400 365.816,312.400 365.591 C 312.400 365.367,312.895 364.966,313.500 364.701 C 314.105 364.435,314.891 363.899,315.247 363.509 C 315.997 362.687,316.665 362.594,316.893 363.280 C 317.018 363.654,317.119 363.654,317.350 363.280 C 317.514 363.016,317.457 362.800,317.224 362.800 C 316.991 362.800,316.800 362.620,316.800 362.400 C 316.800 362.180,316.988 362.000,317.217 362.000 C 317.446 362.000,318.030 361.631,318.515 361.179 C 318.999 360.727,319.712 360.441,320.099 360.542 C 320.485 360.643,320.701 360.564,320.579 360.366 C 320.246 359.828,322.349 357.895,322.997 358.144 C 323.367 358.285,323.483 358.161,323.337 357.780 C 323.214 357.461,323.287 357.200,323.498 357.200 C 323.709 357.200,324.446 356.660,325.137 356.000 C 325.828 355.340,326.548 354.800,326.737 354.800 C 326.926 354.800,328.160 353.731,329.479 352.424 C 331.624 350.299,331.947 350.109,332.537 350.626 C 332.900 350.943,333.025 350.993,332.814 350.737 C 332.197 349.986,350.008 332.340,350.800 332.918 C 351.191 333.204,351.165 333.099,350.724 332.617 C 350.081 331.913,350.164 331.760,352.424 329.479 C 353.731 328.160,354.800 326.926,354.800 326.737 C 354.800 326.548,355.340 325.828,356.000 325.137 C 356.660 324.446,357.200 323.709,357.200 323.498 C 357.200 323.287,357.461 323.214,357.780 323.337 C 358.161 323.483,358.285 323.367,358.144 322.997 C 357.895 322.349,359.828 320.246,360.366 320.579 C 360.564 320.701,360.643 320.485,360.542 320.099 C 360.441 319.712,360.727 318.999,361.179 318.515 C 361.631 318.030,362.000 317.446,362.000 317.217 C 362.000 316.641,362.697 316.691,362.893 317.280 C 363.018 317.654,363.119 317.654,363.350 317.280 C 363.514 317.016,363.457 316.800,363.224 316.800 C 362.569 316.800,362.722 315.965,363.509 315.247 C 363.899 314.891,364.435 314.105,364.701 313.500 C 364.966 312.895,365.367 312.400,365.591 312.400 C 365.816 312.400,366.000 312.130,366.000 311.800 C 366.000 311.470,366.315 310.873,366.700 310.474 C 367.085 310.075,367.758 309.040,368.194 308.174 C 368.631 307.308,369.351 306.268,369.794 305.862 C 370.238 305.456,370.547 304.871,370.482 304.562 C 370.418 304.253,370.553 304.000,370.782 304.000 C 371.012 304.000,371.200 303.730,371.200 303.400 C 371.200 303.070,371.380 302.800,371.600 302.800 C 371.820 302.800,372.000 302.530,372.000 302.200 C 372.000 301.854,372.381 301.587,372.900 301.568 C 373.395 301.551,373.575 301.446,373.300 301.335 C 372.750 301.113,372.605 300.000,373.125 300.000 C 373.304 300.000,373.698 299.370,374.000 298.600 C 374.302 297.830,374.696 297.200,374.875 297.200 C 375.054 297.200,375.200 296.930,375.200 296.600 C 375.200 296.270,375.380 296.000,375.600 296.000 C 375.820 296.000,376.000 295.640,376.000 295.200 C 376.000 294.760,376.250 294.400,376.556 294.400 C 376.861 294.400,377.086 294.089,377.056 293.710 C 377.025 293.330,377.210 293.015,377.467 293.010 C 377.723 293.004,378.083 292.836,378.267 292.636 C 378.460 292.424,378.390 292.392,378.100 292.559 C 377.465 292.925,377.465 292.450,378.100 291.080 C 378.375 290.486,378.797 290.073,379.038 290.163 C 379.307 290.264,379.404 289.957,379.291 289.363 C 379.185 288.811,379.297 288.400,379.553 288.400 C 379.799 288.400,380.000 288.028,380.000 287.573 C 380.000 286.916,380.185 286.792,380.900 286.969 C 381.395 287.092,381.575 287.089,381.300 286.963 C 380.572 286.629,380.649 285.056,381.380 285.337 C 381.767 285.485,381.885 285.367,381.737 284.980 C 381.614 284.661,381.651 284.085,381.818 283.700 C 381.984 283.315,382.174 282.733,382.239 282.407 C 382.303 282.081,382.546 281.751,382.778 281.674 C 383.010 281.597,383.200 281.188,383.200 280.767 C 383.200 280.345,383.391 280.000,383.625 280.000 C 383.859 280.000,383.994 279.595,383.925 279.100 C 383.823 278.367,383.973 278.219,384.729 278.300 C 385.600 278.395,385.616 278.359,384.985 277.727 C 384.422 277.165,384.402 276.984,384.859 276.627 C 385.160 276.392,385.350 275.818,385.282 275.352 C 385.195 274.755,385.430 274.422,386.079 274.225 C 386.632 274.058,386.800 273.864,386.500 273.740 C 385.906 273.495,385.825 272.400,386.400 272.400 C 386.620 272.400,386.800 271.950,386.800 271.400 C 386.800 270.823,387.030 270.400,387.345 270.400 C 387.710 270.400,387.826 270.071,387.698 269.400 C 387.586 268.816,387.693 268.400,387.953 268.400 C 388.199 268.400,388.400 267.860,388.400 267.200 C 388.400 266.470,388.608 266.000,388.931 266.000 C 389.299 266.000,389.405 265.613,389.276 264.736 C 389.124 263.700,389.206 263.517,389.732 263.719 C 390.086 263.854,390.498 263.765,390.649 263.521 C 390.815 263.252,390.741 263.189,390.462 263.362 C 390.160 263.548,390.000 263.301,390.000 262.647 C 390.000 262.097,390.180 261.536,390.400 261.400 C 390.620 261.264,390.800 260.623,390.800 259.976 C 390.800 259.329,390.980 258.800,391.200 258.800 C 391.420 258.800,391.600 258.170,391.600 257.400 C 391.600 256.630,391.780 256.000,392.000 256.000 C 392.220 256.000,392.400 255.351,392.400 254.557 C 392.400 253.546,392.554 253.173,392.914 253.312 C 393.288 253.455,393.386 253.139,393.271 252.155 C 393.175 251.334,393.287 250.800,393.556 250.800 C 393.816 250.800,394.000 250.052,394.000 249.000 C 394.000 248.010,394.180 247.200,394.400 247.200 C 394.620 247.200,394.800 246.480,394.800 245.600 C 394.800 244.720,394.980 244.000,395.200 244.000 C 395.420 244.000,395.600 243.280,395.600 242.400 C 395.600 241.520,395.780 240.800,396.000 240.800 C 396.220 240.800,396.400 239.810,396.400 238.600 C 396.400 237.390,396.580 236.400,396.800 236.400 C 397.020 236.400,397.200 235.453,397.200 234.296 C 397.200 232.626,397.365 232.090,398.000 231.693 C 398.440 231.418,398.800 231.004,398.800 230.773 C 398.800 230.542,398.620 230.464,398.400 230.600 C 398.152 230.753,398.000 230.015,398.000 228.657 C 398.000 227.353,398.187 226.404,398.463 226.312 C 398.718 226.227,398.888 225.627,398.841 224.979 C 398.574 221.279,398.690 219.885,399.238 220.224 C 399.548 220.415,399.657 219.100,399.612 215.747 C 399.576 213.136,399.661 207.310,399.800 202.800 L 400.054 194.600 303.626 98.200 C 250.591 45.180,207.019 1.740,206.799 1.667 C 206.537 1.579,206.400 7.929,206.400 20.101 M173.800 94.400 C 184.358 104.960,193.133 113.600,193.298 113.600 C 193.464 113.600,193.603 110.675,193.606 107.100 C 193.612 100.234,193.833 99.037,195.787 95.271 C 196.835 93.251,200.035 89.600,200.757 89.600 C 201.000 89.600,201.200 89.453,201.200 89.274 C 201.200 88.815,204.325 87.200,205.214 87.200 C 205.620 87.200,206.064 87.020,206.200 86.800 C 206.336 86.580,207.416 86.400,208.600 86.400 C 209.784 86.400,210.864 86.220,211.000 86.000 C 211.159 85.743,217.527 85.600,228.793 85.600 L 246.338 85.600 247.569 84.369 C 249.344 82.594,249.337 79.901,247.553 78.076 L 246.305 76.800 226.653 76.766 C 188.383 76.700,157.072 76.216,156.896 75.687 C 156.806 75.419,156.254 75.200,155.668 75.200 C 154.767 75.200,157.549 78.147,173.800 94.400 " stroke="none" fill="#fc6c04" fill-rule="evenodd"></path><path id="path3" d="M182.755 0.178 C 182.657 0.277,180.827 0.389,178.688 0.429 C 176.550 0.469,174.800 0.659,174.800 0.851 C 174.800 1.043,173.551 1.200,172.024 1.200 C 170.497 1.200,169.136 1.380,169.000 1.600 C 168.864 1.820,167.773 2.000,166.576 2.000 C 165.379 2.000,164.400 2.180,164.400 2.400 C 164.400 2.620,163.410 2.800,162.200 2.800 C 160.990 2.800,160.000 2.980,160.000 3.200 C 160.000 3.420,159.280 3.600,158.400 3.600 C 157.520 3.600,156.800 3.780,156.800 4.000 C 156.800 4.220,156.001 4.400,155.024 4.400 C 154.047 4.400,153.136 4.580,153.000 4.800 C 152.864 5.020,152.043 5.200,151.176 5.200 C 150.309 5.200,149.600 5.380,149.600 5.600 C 149.600 5.820,149.071 6.000,148.424 6.000 C 147.777 6.000,147.136 6.180,147.000 6.400 C 146.864 6.620,146.123 6.800,145.353 6.800 C 144.521 6.800,144.053 6.962,144.200 7.200 C 144.411 7.541,142.593 7.832,141.470 7.637 C 141.289 7.606,141.243 7.746,141.368 7.948 C 141.493 8.151,140.922 8.407,140.098 8.519 C 139.274 8.630,138.330 8.795,138.000 8.885 C 136.574 9.275,135.345 9.674,134.600 9.989 C 133.041 10.649,132.188 10.925,131.207 11.088 C 130.662 11.178,130.122 11.383,130.007 11.543 C 129.893 11.703,129.035 12.080,128.100 12.381 C 127.165 12.682,126.400 13.040,126.400 13.177 C 126.400 13.314,125.915 13.466,125.322 13.515 C 124.730 13.564,124.145 13.738,124.022 13.902 C 123.762 14.251,121.226 15.260,120.500 15.304 C 120.225 15.320,120.000 15.483,120.000 15.667 C 120.000 15.850,119.640 16.000,119.200 16.000 C 118.760 16.000,118.400 16.180,118.400 16.400 C 118.400 16.620,118.040 16.800,117.600 16.800 C 117.160 16.800,116.800 16.980,116.800 17.200 C 116.800 17.420,116.440 17.600,116.000 17.600 C 115.560 17.600,115.200 17.736,115.200 17.903 C 115.200 18.069,114.455 18.438,113.544 18.722 C 112.633 19.006,111.115 19.770,110.172 20.420 C 109.228 21.069,108.166 21.600,107.811 21.600 C 107.457 21.600,106.780 21.960,106.308 22.400 C 105.836 22.840,105.213 23.200,104.925 23.200 C 104.636 23.200,104.400 23.380,104.400 23.600 C 104.400 23.820,104.040 24.000,103.600 24.000 C 103.160 24.000,102.800 24.180,102.800 24.400 C 102.800 24.620,102.485 24.813,102.100 24.829 C 101.715 24.845,100.860 25.203,100.200 25.625 C 99.540 26.046,98.730 26.516,98.400 26.669 C 97.615 27.034,91.941 30.652,91.317 31.186 C 91.051 31.414,90.622 31.600,90.364 31.600 C 90.105 31.600,89.603 31.916,89.247 32.303 C 88.891 32.689,88.105 33.260,87.500 33.570 C 86.895 33.881,86.400 34.285,86.400 34.468 C 86.400 34.650,86.122 34.800,85.782 34.800 C 85.442 34.800,84.727 35.237,84.193 35.771 C 83.659 36.305,82.677 37.064,82.011 37.457 C 81.345 37.851,80.800 38.314,80.800 38.486 C 80.800 38.659,80.575 38.804,80.300 38.809 C 80.025 38.814,79.149 39.399,78.353 40.109 C 76.458 41.799,74.056 43.707,73.246 44.166 C 72.891 44.367,72.468 44.727,72.306 44.966 C 72.144 45.205,72.009 45.274,72.006 45.119 C 72.003 44.965,71.109 45.730,70.019 46.819 C 68.930 47.909,67.866 48.800,67.655 48.800 C 67.444 48.800,65.321 50.775,62.936 53.189 C 57.683 58.506,58.506 57.683,53.189 62.936 C 50.775 65.321,48.800 67.444,48.800 67.655 C 48.800 67.866,47.909 68.930,46.819 70.019 C 45.730 71.109,44.965 72.003,45.119 72.006 C 45.274 72.009,45.205 72.144,44.966 72.306 C 44.727 72.468,44.367 72.891,44.166 73.246 C 43.707 74.056,41.799 76.458,40.109 78.353 C 39.399 79.149,38.814 80.025,38.809 80.300 C 38.804 80.575,38.659 80.800,38.486 80.800 C 38.314 80.800,37.851 81.345,37.457 82.011 C 37.064 82.677,36.305 83.659,35.771 84.193 C 35.237 84.727,34.800 85.442,34.800 85.782 C 34.800 86.122,34.650 86.400,34.468 86.400 C 34.285 86.400,33.881 86.895,33.570 87.500 C 33.260 88.105,32.689 88.891,32.303 89.247 C 31.916 89.603,31.600 90.105,31.600 90.364 C 31.600 90.622,31.414 91.051,31.186 91.317 C 30.652 91.941,27.034 97.615,26.669 98.400 C 26.516 98.730,26.046 99.540,25.625 100.200 C 25.203 100.860,24.845 101.715,24.829 102.100 C 24.813 102.485,24.620 102.800,24.400 102.800 C 24.180 102.800,24.000 103.160,24.000 103.600 C 24.000 104.040,23.820 104.400,23.600 104.400 C 23.380 104.400,23.200 104.636,23.200 104.925 C 23.200 105.213,22.840 105.836,22.400 106.308 C 21.960 106.780,21.600 107.457,21.600 107.811 C 21.600 108.166,21.069 109.228,20.420 110.172 C 19.770 111.115,19.006 112.633,18.722 113.544 C 18.438 114.455,18.069 115.200,17.903 115.200 C 17.736 115.200,17.600 115.560,17.600 116.000 C 17.600 116.440,17.420 116.800,17.200 116.800 C 16.980 116.800,16.800 117.160,16.800 117.600 C 16.800 118.040,16.620 118.400,16.400 118.400 C 16.180 118.400,16.000 118.760,16.000 119.200 C 16.000 119.640,15.850 120.000,15.667 120.000 C 15.483 120.000,15.320 120.225,15.304 120.500 C 15.260 121.226,14.251 123.762,13.902 124.022 C 13.738 124.145,13.564 124.730,13.515 125.322 C 13.466 125.915,13.314 126.400,13.177 126.400 C 13.040 126.400,12.682 127.165,12.381 128.100 C 12.080 129.035,11.703 129.893,11.543 130.007 C 11.383 130.122,11.178 130.662,11.088 131.207 C 10.925 132.188,10.649 133.041,9.989 134.600 C 9.674 135.345,9.275 136.574,8.885 138.000 C 8.795 138.330,8.630 139.274,8.519 140.098 C 8.407 140.922,8.151 141.493,7.948 141.368 C 7.746 141.243,7.606 141.289,7.637 141.470 C 7.832 142.593,7.541 144.411,7.200 144.200 C 6.962 144.053,6.800 144.521,6.800 145.353 C 6.800 146.123,6.620 146.864,6.400 147.000 C 6.180 147.136,6.000 147.777,6.000 148.424 C 6.000 149.071,5.820 149.600,5.600 149.600 C 5.380 149.600,5.200 150.309,5.200 151.176 C 5.200 152.043,5.020 152.864,4.800 153.000 C 4.580 153.136,4.400 154.047,4.400 155.024 C 4.400 156.001,4.220 156.800,4.000 156.800 C 3.780 156.800,3.600 157.520,3.600 158.400 C 3.600 159.280,3.420 160.000,3.200 160.000 C 2.980 160.000,2.800 160.990,2.800 162.200 C 2.800 163.410,2.620 164.400,2.400 164.400 C 2.180 164.400,2.000 165.379,2.000 166.576 C 2.000 167.773,1.820 168.864,1.600 169.000 C 1.380 169.136,1.200 170.497,1.200 172.024 C 1.200 173.551,1.043 174.800,0.851 174.800 C 0.345 174.800,0.200 180.402,0.200 200.000 C 0.200 219.598,0.345 225.200,0.851 225.200 C 1.043 225.200,1.200 226.449,1.200 227.976 C 1.200 229.503,1.380 230.864,1.600 231.000 C 1.820 231.136,2.000 232.227,2.000 233.424 C 2.000 234.621,2.180 235.600,2.400 235.600 C 2.620 235.600,2.800 236.590,2.800 237.800 C 2.800 239.010,2.980 240.000,3.200 240.000 C 3.420 240.000,3.600 240.720,3.600 241.600 C 3.600 242.480,3.780 243.200,4.000 243.200 C 4.220 243.200,4.400 243.999,4.400 244.976 C 4.400 245.953,4.580 246.864,4.800 247.000 C 5.020 247.136,5.200 247.957,5.200 248.824 C 5.200 249.691,5.380 250.400,5.600 250.400 C 5.820 250.400,6.000 250.929,6.000 251.576 C 6.000 252.223,6.180 252.864,6.400 253.000 C 6.620 253.136,6.800 253.877,6.800 254.647 C 6.800 255.479,6.962 255.947,7.200 255.800 C 7.541 255.589,7.832 257.407,7.637 258.530 C 7.606 258.711,7.746 258.757,7.948 258.632 C 8.151 258.507,8.407 259.078,8.519 259.902 C 8.630 260.726,8.795 261.670,8.885 262.000 C 9.275 263.426,9.674 264.655,9.989 265.400 C 10.649 266.959,10.925 267.812,11.088 268.793 C 11.178 269.338,11.383 269.878,11.543 269.993 C 11.703 270.107,12.080 270.965,12.381 271.900 C 12.682 272.835,13.040 273.600,13.177 273.600 C 13.314 273.600,13.466 274.085,13.515 274.678 C 13.564 275.270,13.738 275.855,13.902 275.978 C 14.251 276.238,15.260 278.774,15.304 279.500 C 15.320 279.775,15.483 280.000,15.667 280.000 C 15.850 280.000,16.000 280.360,16.000 280.800 C 16.000 281.240,16.180 281.600,16.400 281.600 C 16.620 281.600,16.800 281.960,16.800 282.400 C 16.800 282.840,16.980 283.200,17.200 283.200 C 17.420 283.200,17.600 283.560,17.600 284.000 C 17.600 284.440,17.736 284.800,17.903 284.800 C 18.069 284.800,18.438 285.545,18.722 286.456 C 19.006 287.367,19.770 288.885,20.420 289.828 C 21.069 290.772,21.600 291.834,21.600 292.189 C 21.600 292.543,21.960 293.220,22.400 293.692 C 22.840 294.164,23.200 294.787,23.200 295.075 C 23.200 295.364,23.380 295.600,23.600 295.600 C 23.820 295.600,24.000 295.960,24.000 296.400 C 24.000 296.840,24.180 297.200,24.400 297.200 C 24.620 297.200,24.813 297.515,24.829 297.900 C 24.845 298.285,25.203 299.140,25.625 299.800 C 26.046 300.460,26.516 301.270,26.669 301.600 C 27.034 302.385,30.652 308.059,31.186 308.683 C 31.414 308.949,31.600 309.378,31.600 309.636 C 31.600 309.895,31.916 310.397,32.303 310.753 C 32.689 311.109,33.260 311.895,33.570 312.500 C 33.881 313.105,34.285 313.600,34.468 313.600 C 34.650 313.600,34.800 313.878,34.800 314.218 C 34.800 314.558,35.237 315.273,35.771 315.807 C 36.305 316.341,37.064 317.323,37.457 317.989 C 37.851 318.655,38.314 319.200,38.486 319.200 C 38.659 319.200,38.804 319.425,38.809 319.700 C 38.814 319.975,39.399 320.851,40.109 321.647 C 41.799 323.542,43.707 325.944,44.166 326.754 C 44.367 327.109,44.727 327.532,44.966 327.694 C 45.205 327.856,45.274 327.991,45.119 327.994 C 44.965 327.997,45.730 328.891,46.819 329.981 C 47.909 331.070,48.800 332.134,48.800 332.345 C 48.800 332.556,50.775 334.679,53.189 337.064 C 58.506 342.317,57.683 341.494,62.936 346.811 C 65.321 349.225,67.444 351.200,67.655 351.200 C 67.866 351.200,68.930 352.091,70.019 353.181 C 71.109 354.270,72.003 355.035,72.006 354.881 C 72.009 354.726,72.144 354.795,72.306 355.034 C 72.468 355.273,72.891 355.633,73.246 355.834 C 74.056 356.293,76.458 358.201,78.353 359.891 C 79.149 360.601,80.025 361.186,80.300 361.191 C 80.575 361.196,80.800 361.341,80.800 361.514 C 80.800 361.686,81.345 362.149,82.011 362.543 C 82.677 362.936,83.659 363.695,84.193 364.229 C 84.727 364.763,85.442 365.200,85.782 365.200 C 86.122 365.200,86.400 365.350,86.400 365.532 C 86.400 365.715,86.895 366.119,87.500 366.430 C 88.105 366.740,88.891 367.311,89.247 367.697 C 89.603 368.084,90.105 368.400,90.364 368.400 C 90.622 368.400,91.051 368.586,91.317 368.814 C 91.941 369.348,97.615 372.966,98.400 373.331 C 98.730 373.484,99.540 373.954,100.200 374.375 C 100.860 374.797,101.715 375.155,102.100 375.171 C 102.485 375.187,102.800 375.380,102.800 375.600 C 102.800 375.820,103.160 376.000,103.600 376.000 C 104.040 376.000,104.400 376.180,104.400 376.400 C 104.400 376.620,104.636 376.800,104.925 376.800 C 105.213 376.800,105.836 377.160,106.308 377.600 C 106.780 378.040,107.457 378.400,107.811 378.400 C 108.166 378.400,109.228 378.931,110.172 379.580 C 111.115 380.230,112.633 380.994,113.544 381.278 C 114.455 381.562,115.200 381.931,115.200 382.097 C 115.200 382.264,115.560 382.400,116.000 382.400 C 116.440 382.400,116.800 382.580,116.800 382.800 C 116.800 383.020,117.160 383.200,117.600 383.200 C 118.040 383.200,118.400 383.380,118.400 383.600 C 118.400 383.820,118.760 384.000,119.200 384.000 C 119.640 384.000,120.000 384.150,120.000 384.333 C 120.000 384.517,120.225 384.680,120.500 384.696 C 121.226 384.740,123.762 385.749,124.022 386.098 C 124.145 386.262,124.730 386.436,125.322 386.485 C 125.915 386.534,126.400 386.686,126.400 386.823 C 126.400 386.960,127.165 387.318,128.100 387.619 C 129.035 387.920,129.893 388.297,130.007 388.457 C 130.122 388.617,130.662 388.822,131.207 388.912 C 132.188 389.075,133.041 389.351,134.600 390.011 C 135.345 390.326,136.574 390.725,138.000 391.115 C 138.330 391.205,139.274 391.370,140.098 391.481 C 140.922 391.593,141.493 391.849,141.368 392.052 C 141.243 392.254,141.289 392.394,141.470 392.363 C 142.593 392.168,144.411 392.459,144.200 392.800 C 144.053 393.038,144.521 393.200,145.353 393.200 C 146.123 393.200,146.864 393.380,147.000 393.600 C 147.136 393.820,147.777 394.000,148.424 394.000 C 149.071 394.000,149.600 394.180,149.600 394.400 C 149.600 394.620,150.309 394.800,151.176 394.800 C 152.043 394.800,152.864 394.980,153.000 395.200 C 153.136 395.420,154.047 395.600,155.024 395.600 C 156.001 395.600,156.800 395.780,156.800 396.000 C 156.800 396.220,157.340 396.400,158.000 396.400 C 160.058 396.400,163.137 399.601,100.858 336.991 C 62.522 298.452,60.399 296.267,61.600 296.588 C 62.150 296.736,61.686 296.318,60.569 295.659 C 58.150 294.234,56.395 292.323,54.899 289.485 L 53.800 287.400 53.800 227.400 L 53.800 167.400 54.672 165.513 C 55.812 163.045,58.921 159.754,61.192 158.610 C 64.781 156.803,64.865 156.800,114.412 156.800 L 161.586 156.800 161.693 147.300 L 161.800 137.800 177.900 137.800 L 194.000 137.800 193.912 120.400 C 193.863 110.830,193.768 105.604,193.700 108.787 L 193.577 114.574 173.212 94.212 C 162.011 83.012,152.936 73.703,153.047 73.525 C 153.157 73.346,153.050 73.200,152.809 73.200 C 152.063 73.200,147.761 68.688,146.897 67.000 C 143.739 60.827,143.916 54.459,147.397 48.988 C 149.495 45.691,151.897 43.836,157.000 41.568 C 157.907 41.165,162.160 40.982,174.400 40.817 C 196.215 40.525,193.764 43.303,193.915 18.700 L 194.030 0.000 188.482 0.000 C 185.430 0.000,182.853 0.080,182.755 0.178 M205.986 18.238 C 205.969 40.330,205.707 41.962,201.340 47.212 L 199.853 49.000 201.345 47.603 C 202.166 46.835,203.066 45.755,203.345 45.203 C 203.625 44.651,204.045 43.840,204.280 43.400 C 206.261 39.687,206.400 38.067,206.400 18.695 L 206.400 0.601 302.900 97.100 C 355.975 150.175,399.563 193.600,399.762 193.600 C 400.043 193.600,399.903 184.177,399.490 175.300 C 399.477 175.025,399.317 174.800,399.133 174.800 C 398.950 174.800,398.800 173.551,398.800 172.024 C 398.800 170.497,398.620 169.136,398.400 169.000 C 398.180 168.864,398.000 167.773,398.000 166.576 C 398.000 165.379,397.820 164.400,397.600 164.400 C 397.380 164.400,397.200 163.410,397.200 162.200 C 397.200 160.990,397.020 160.000,396.800 160.000 C 396.580 160.000,396.400 159.280,396.400 158.400 C 396.400 157.520,396.220 156.800,396.000 156.800 C 395.780 156.800,395.600 156.001,395.600 155.024 C 395.600 154.047,395.420 153.136,395.200 153.000 C 394.980 152.864,394.800 152.043,394.800 151.176 C 394.800 150.309,394.620 149.600,394.400 149.600 C 394.180 149.600,394.000 149.071,394.000 148.424 C 394.000 147.777,393.820 147.136,393.600 147.000 C 393.380 146.864,393.200 146.123,393.200 145.353 C 393.200 144.521,393.038 144.053,392.800 144.200 C 392.459 144.411,392.168 142.593,392.363 141.470 C 392.394 141.289,392.254 141.243,392.052 141.368 C 391.849 141.493,391.593 140.922,391.481 140.098 C 391.370 139.274,391.205 138.330,391.115 138.000 C 390.725 136.574,390.326 135.345,390.011 134.600 C 389.351 133.041,389.075 132.188,388.912 131.207 C 388.822 130.662,388.617 130.122,388.457 130.007 C 388.297 129.893,387.920 129.035,387.619 128.100 C 387.318 127.165,386.960 126.400,386.823 126.400 C 386.686 126.400,386.534 125.915,386.485 125.322 C 386.436 124.730,386.262 124.145,386.098 124.022 C 385.749 123.762,384.740 121.226,384.696 120.500 C 384.680 120.225,384.517 120.000,384.333 120.000 C 384.150 120.000,384.000 119.640,384.000 119.200 C 384.000 118.760,383.820 118.400,383.600 118.400 C 383.380 118.400,383.200 118.040,383.200 117.600 C 383.200 117.160,383.020 116.800,382.800 116.800 C 382.580 116.800,382.400 116.440,382.400 116.000 C 382.400 115.560,382.264 115.200,382.097 115.200 C 381.931 115.200,381.562 114.455,381.278 113.544 C 380.994 112.633,380.230 111.115,379.580 110.172 C 378.931 109.228,378.400 108.166,378.400 107.811 C 378.400 107.457,378.040 106.780,377.600 106.308 C 377.160 105.836,376.800 105.213,376.800 104.925 C 376.800 104.636,376.620 104.400,376.400 104.400 C 376.180 104.400,376.000 104.040,376.000 103.600 C 376.000 103.160,375.820 102.800,375.600 102.800 C 375.380 102.800,375.187 102.485,375.171 102.100 C 375.155 101.715,374.797 100.860,374.375 100.200 C 373.954 99.540,373.484 98.730,373.331 98.400 C 372.966 97.615,369.348 91.941,368.814 91.317 C 368.586 91.051,368.400 90.622,368.400 90.364 C 368.400 90.105,368.084 89.603,367.697 89.247 C 367.311 88.891,366.740 88.105,366.430 87.500 C 366.119 86.895,365.715 86.400,365.532 86.400 C 365.350 86.400,365.200 86.122,365.200 85.782 C 365.200 85.442,364.763 84.727,364.229 84.193 C 363.695 83.659,362.936 82.677,362.543 82.011 C 362.149 81.345,361.686 80.800,361.514 80.800 C 361.341 80.800,361.196 80.575,361.191 80.300 C 361.186 80.025,360.601 79.149,359.891 78.353 C 358.201 76.458,356.293 74.056,355.834 73.246 C 355.633 72.891,355.273 72.468,355.034 72.306 C 354.795 72.144,354.726 72.009,354.881 72.006 C 355.035 72.003,354.270 71.109,353.181 70.019 C 352.091 68.930,351.200 67.866,351.200 67.655 C 351.200 67.444,349.225 65.321,346.811 62.936 C 341.494 57.683,342.317 58.506,337.064 53.189 C 334.679 50.775,332.556 48.800,332.345 48.800 C 332.134 48.800,331.070 47.909,329.981 46.819 C 328.891 45.730,327.997 44.965,327.994 45.119 C 327.991 45.274,327.856 45.205,327.694 44.966 C 327.532 44.727,327.109 44.367,326.754 44.166 C 325.944 43.707,323.542 41.799,321.647 40.109 C 320.851 39.399,319.975 38.814,319.700 38.809 C 319.425 38.804,319.200 38.659,319.200 38.486 C 319.200 38.314,318.655 37.851,317.989 37.457 C 317.323 37.064,316.341 36.305,315.807 35.771 C 315.273 35.237,314.558 34.800,314.218 34.800 C 313.878 34.800,313.600 34.650,313.600 34.468 C 313.600 34.285,313.105 33.881,312.500 33.570 C 311.895 33.260,311.109 32.689,310.753 32.303 C 310.397 31.916,309.895 31.600,309.636 31.600 C 309.378 31.600,308.949 31.414,308.683 31.186 C 308.059 30.652,302.385 27.034,301.600 26.669 C 301.270 26.516,300.460 26.046,299.800 25.625 C 299.140 25.203,298.285 24.845,297.900 24.829 C 297.515 24.813,297.200 24.620,297.200 24.400 C 297.200 24.180,296.840 24.000,296.400 24.000 C 295.960 24.000,295.600 23.820,295.600 23.600 C 295.600 23.380,295.364 23.200,295.075 23.200 C 294.787 23.200,294.164 22.840,293.692 22.400 C 293.220 21.960,292.543 21.600,292.189 21.600 C 291.834 21.600,290.772 21.069,289.828 20.420 C 288.885 19.770,287.367 19.006,286.456 18.722 C 285.545 18.438,284.800 18.069,284.800 17.903 C 284.800 17.736,284.440 17.600,284.000 17.600 C 283.560 17.600,283.200 17.420,283.200 17.200 C 283.200 16.980,282.840 16.800,282.400 16.800 C 281.960 16.800,281.600 16.620,281.600 16.400 C 281.600 16.180,281.240 16.000,280.800 16.000 C 280.360 16.000,280.000 15.850,280.000 15.667 C 280.000 15.483,279.775 15.320,279.500 15.304 C 278.774 15.260,276.238 14.251,275.978 13.902 C 275.855 13.738,275.270 13.564,274.678 13.515 C 274.085 13.466,273.600 13.314,273.600 13.177 C 273.600 13.040,272.835 12.682,271.900 12.381 C 270.965 12.080,270.107 11.703,269.993 11.543 C 269.878 11.383,269.338 11.178,268.793 11.088 C 267.812 10.925,266.959 10.649,265.400 9.989 C 264.655 9.674,263.426 9.275,262.000 8.885 C 261.670 8.795,260.726 8.630,259.902 8.519 C 259.078 8.407,258.507 8.151,258.632 7.948 C 258.757 7.746,258.711 7.606,258.530 7.637 C 257.407 7.832,255.589 7.541,255.800 7.200 C 255.947 6.962,255.479 6.800,254.647 6.800 C 253.877 6.800,253.136 6.620,253.000 6.400 C 252.864 6.180,252.223 6.000,251.576 6.000 C 250.929 6.000,250.400 5.820,250.400 5.600 C 250.400 5.380,249.691 5.200,248.824 5.200 C 247.957 5.200,247.136 5.020,247.000 4.800 C 246.864 4.580,245.953 4.400,244.976 4.400 C 243.999 4.400,243.200 4.220,243.200 4.000 C 243.200 3.780,242.480 3.600,241.600 3.600 C 240.720 3.600,240.000 3.420,240.000 3.200 C 240.000 2.980,239.010 2.800,237.800 2.800 C 236.590 2.800,235.600 2.620,235.600 2.400 C 235.600 2.180,234.621 2.000,233.424 2.000 C 232.227 2.000,231.136 1.820,231.000 1.600 C 230.864 1.380,229.503 1.200,227.976 1.200 C 226.449 1.200,225.200 1.050,225.200 0.867 C 225.200 0.683,224.975 0.522,224.700 0.509 C 224.425 0.495,220.105 0.347,215.100 0.180 L 206.000 -0.125 205.986 18.238 M168.726 53.100 C 172.755 53.165,179.235 53.165,183.126 53.099 C 187.017 53.034,183.720 52.980,175.800 52.981 C 167.880 52.981,164.697 53.034,168.726 53.100 M160.200 63.600 C 160.640 63.789,161.270 63.944,161.600 63.944 C 161.978 63.944,161.904 63.817,161.400 63.600 C 160.960 63.411,160.330 63.256,160.000 63.256 C 159.622 63.256,159.696 63.383,160.200 63.600 M211.128 63.900 C 217.359 63.962,227.439 63.962,233.528 63.900 C 239.618 63.838,234.520 63.787,222.200 63.787 C 209.880 63.787,204.898 63.838,211.128 63.900 M246.800 64.419 C 248.010 64.592,249.609 64.923,250.354 65.155 C 252.148 65.712,251.600 65.196,249.693 64.532 C 248.872 64.246,247.390 64.033,246.400 64.058 L 244.600 64.105 246.800 64.419 M256.032 68.847 C 259.808 72.571,261.136 75.523,261.590 81.200 L 261.862 84.600 261.931 81.628 C 262.062 76.002,258.453 69.069,254.142 66.665 C 253.734 66.437,254.584 67.419,256.032 68.847 M159.100 75.882 C 159.595 75.978,160.405 75.978,160.900 75.882 C 161.395 75.787,160.990 75.709,160.000 75.709 C 159.010 75.709,158.605 75.787,159.100 75.882 M222.200 75.994 C 246.667 76.215,246.558 76.205,248.298 78.313 C 248.792 78.911,249.197 79.194,249.198 78.942 C 249.199 78.690,248.786 78.085,248.279 77.598 C 246.245 75.640,245.769 75.606,221.800 75.700 L 199.400 75.787 222.200 75.994 M249.309 81.200 C 249.309 82.190,249.387 82.595,249.482 82.100 C 249.578 81.605,249.578 80.795,249.482 80.300 C 249.387 79.805,249.309 80.210,249.309 81.200 M247.757 84.622 C 247.073 85.380,246.643 86.000,246.802 86.000 C 247.210 86.000,249.200 83.963,249.200 83.545 C 249.200 83.048,249.130 83.100,247.757 84.622 M261.067 85.067 C 260.920 85.213,260.800 85.638,260.800 86.010 C 260.800 88.665,256.277 94.294,252.597 96.220 C 251.401 96.845,250.496 97.429,250.585 97.518 C 251.578 98.511,258.069 92.783,259.891 89.305 C 261.371 86.478,262.030 84.103,261.067 85.067 M226.400 86.400 L 207.800 86.612 226.400 86.700 C 237.887 86.754,245.229 86.639,245.600 86.400 C 246.133 86.055,246.133 86.022,245.600 86.100 C 245.270 86.148,236.630 86.283,226.400 86.400 M206.000 87.200 C 205.176 87.464,205.141 87.526,205.800 87.554 C 206.240 87.573,206.870 87.413,207.200 87.200 C 207.901 86.747,207.414 86.747,206.000 87.200 M203.227 88.294 C 202.472 88.666,200.931 89.877,199.803 90.985 C 197.957 92.798,198.508 92.429,201.175 90.064 C 201.712 89.589,202.387 89.200,202.675 89.200 C 202.964 89.200,203.200 89.020,203.200 88.800 C 203.200 88.580,203.459 88.400,203.776 88.400 C 204.093 88.400,204.464 88.220,204.600 88.000 C 204.922 87.479,204.851 87.495,203.227 88.294 M210.137 98.706 C 209.717 98.973,232.396 98.954,241.600 98.680 C 243.690 98.618,237.570 98.533,228.000 98.490 C 218.430 98.447,210.392 98.544,210.137 98.706 M207.246 100.671 L 206.000 102.182 206.096 119.791 L 206.191 137.400 206.300 119.738 L 206.408 102.076 207.616 100.783 C 208.280 100.072,208.749 99.416,208.658 99.325 C 208.567 99.233,207.931 99.839,207.246 100.671 M255.800 157.095 C 302.239 157.369,336.306 157.371,336.138 157.100 C 336.036 156.935,313.958 156.843,287.076 156.896 C 260.194 156.948,246.120 157.038,255.800 157.095 M338.716 158.664 C 341.080 159.841,343.858 162.697,345.159 165.287 C 345.633 166.229,345.904 166.550,345.761 166.000 C 345.437 164.745,342.986 161.269,341.673 160.204 C 340.291 159.082,337.675 157.599,337.089 157.605 C 336.820 157.608,337.552 158.084,338.716 158.664 M346.080 168.000 C 346.080 168.550,346.224 169.450,346.400 170.000 L 346.720 171.000 346.720 170.000 C 346.720 169.450,346.576 168.550,346.400 168.000 L 346.080 167.000 346.080 168.000 M346.218 285.418 C 346.065 286.439,346.022 287.355,346.122 287.455 C 346.222 287.555,346.429 286.802,346.582 285.782 C 346.735 284.761,346.778 283.845,346.678 283.745 C 346.578 283.645,346.371 284.398,346.218 285.418 M344.817 289.764 C 344.355 290.776,342.948 292.629,341.689 293.881 C 340.165 295.396,339.884 295.793,340.849 295.069 C 343.221 293.291,346.489 288.756,345.856 288.122 C 345.746 288.012,345.278 288.751,344.817 289.764 M335.800 297.200 C 335.508 297.673,335.899 297.673,337.000 297.200 C 337.771 296.869,337.769 296.855,336.924 296.828 C 336.442 296.813,335.936 296.980,335.800 297.200 M133.700 297.900 C 170.605 297.956,230.995 297.956,267.900 297.900 C 304.805 297.844,274.610 297.798,200.800 297.798 C 126.990 297.798,96.795 297.844,133.700 297.900 " stroke="none" fill="#fca304" fill-rule="evenodd"></path><path id="path4" d="M206.466 1.001 C 206.548 1.496,399.523 194.236,399.684 193.983 C 399.748 193.882,356.285 150.330,303.100 97.201 C 249.915 44.071,206.430 0.781,206.466 1.001 M205.800 38.800 C 205.648 39.491,205.614 40.147,205.724 40.257 C 205.834 40.367,206.048 39.891,206.200 39.200 C 206.352 38.509,206.386 37.853,206.276 37.743 C 206.166 37.633,205.952 38.109,205.800 38.800 M203.854 44.173 C 203.494 44.723,203.200 45.344,203.200 45.554 C 203.200 46.276,198.678 49.966,196.468 51.047 C 192.514 52.982,190.597 53.171,174.791 53.186 L 160.182 53.200 158.691 54.429 C 157.871 55.105,157.201 55.870,157.202 56.129 C 157.203 56.388,157.608 56.122,158.102 55.538 C 159.722 53.621,159.912 53.600,175.397 53.600 C 189.187 53.600,192.165 53.414,194.600 52.400 C 195.040 52.217,195.985 51.828,196.700 51.536 C 197.415 51.244,198.000 50.869,198.000 50.702 C 198.000 50.536,198.243 50.400,198.539 50.400 C 199.216 50.400,202.951 46.621,204.033 44.842 C 204.978 43.288,204.821 42.698,203.854 44.173 M157.609 61.260 C 158.116 62.374,158.888 62.866,161.264 63.591 C 162.314 63.912,174.700 64.005,205.064 63.919 C 250.903 63.790,248.639 63.695,252.800 65.931 C 253.790 66.463,255.060 67.326,255.622 67.849 C 256.184 68.372,256.792 68.800,256.972 68.800 C 257.456 68.800,254.318 66.002,253.822 65.991 C 253.590 65.986,252.950 65.630,252.400 65.200 C 251.850 64.770,251.031 64.414,250.580 64.409 C 250.129 64.404,249.535 64.175,249.260 63.900 C 248.869 63.509,239.097 63.353,204.280 63.184 C 179.816 63.066,159.757 62.931,159.703 62.884 C 159.650 62.838,159.050 62.217,158.368 61.504 C 157.202 60.284,157.158 60.270,157.609 61.260 M258.024 70.300 C 258.554 70.905,259.126 71.571,259.294 71.780 C 259.487 72.020,259.600 72.020,259.600 71.780 C 259.599 71.288,257.806 69.200,257.384 69.200 C 257.206 69.200,257.494 69.695,258.024 70.300 M172.984 93.984 C 184.194 105.195,193.413 114.321,193.471 114.263 C 193.529 114.204,184.852 105.439,174.188 94.784 C 159.619 80.227,154.966 75.352,155.471 75.175 C 156.087 74.959,156.084 74.918,155.435 74.669 C 155.046 74.519,154.583 74.487,154.406 74.596 C 154.229 74.706,153.981 74.526,153.854 74.198 C 153.728 73.869,153.395 73.600,153.114 73.600 C 152.833 73.600,161.774 82.773,172.984 93.984 M156.800 75.600 C 156.800 75.820,157.205 75.997,157.700 75.994 C 158.428 75.989,158.485 75.914,158.000 75.600 C 157.224 75.099,156.800 75.099,156.800 75.600 M183.200 76.422 C 218.180 76.848,245.879 76.838,245.200 76.400 C 244.821 76.155,229.305 76.039,203.000 76.084 C 165.231 76.149,163.408 76.180,183.200 76.422 M247.500 78.014 C 249.338 79.906,249.367 82.571,247.569 84.369 L 246.338 85.600 228.793 85.600 C 217.527 85.600,211.159 85.743,211.000 86.000 C 210.656 86.556,243.686 86.538,245.692 85.981 C 249.607 84.894,250.512 78.956,247.043 77.122 C 246.472 76.819,246.619 77.107,247.500 78.014 M206.200 86.800 C 205.908 87.273,206.299 87.273,207.400 86.800 C 208.171 86.469,208.169 86.455,207.324 86.428 C 206.842 86.413,206.336 86.580,206.200 86.800 M201.829 88.609 C 201.405 88.929,201.138 89.271,201.235 89.369 C 201.332 89.466,201.859 89.202,202.406 88.782 C 202.953 88.361,203.220 88.020,203.000 88.022 C 202.780 88.024,202.253 88.288,201.829 88.609 M198.400 91.649 C 196.566 93.710,194.445 97.316,194.429 98.400 C 194.424 98.730,194.963 97.882,195.625 96.516 C 196.288 95.149,197.742 93.034,198.855 91.816 C 199.969 90.597,200.727 89.606,200.540 89.613 C 200.353 89.621,199.390 90.537,198.400 91.649 M258.283 91.800 C 256.967 93.449,257.276 93.700,258.653 92.100 C 259.467 91.153,259.843 90.400,259.500 90.400 C 259.445 90.400,258.897 91.030,258.283 91.800 M254.600 95.412 C 253.940 95.953,253.580 96.397,253.800 96.398 C 254.020 96.398,254.723 95.949,255.362 95.400 C 256.865 94.107,256.178 94.119,254.600 95.412 M251.400 97.222 C 250.520 97.638,250.079 97.984,250.420 97.990 C 251.224 98.003,253.193 97.089,253.197 96.700 C 253.201 96.341,253.359 96.295,251.400 97.222 M247.000 98.400 L 245.000 98.674 247.076 98.737 C 248.218 98.772,249.264 98.620,249.400 98.400 C 249.536 98.180,249.502 98.028,249.324 98.063 C 249.146 98.097,248.100 98.249,247.000 98.400 M209.815 99.147 C 208.696 99.386,237.479 99.319,242.600 99.070 C 243.920 99.006,237.350 98.941,228.000 98.924 C 218.650 98.908,210.467 99.008,209.815 99.147 M193.888 99.733 C 193.730 100.136,193.618 101.126,193.640 101.933 L 193.680 103.400 194.052 101.811 C 194.481 99.981,194.365 98.519,193.888 99.733 M206.231 137.591 C 206.662 138.022,238.400 138.373,238.400 137.947 C 238.400 137.328,235.673 137.211,221.220 137.205 C 211.207 137.202,205.976 137.336,206.231 137.591 M161.867 137.867 C 161.720 138.013,161.640 142.378,161.689 147.567 L 161.778 157.000 161.989 147.600 L 162.200 138.200 178.000 137.993 L 193.800 137.786 177.967 137.693 C 169.258 137.642,162.013 137.720,161.867 137.867 M238.000 156.400 C 238.000 156.664,254.067 156.800,285.400 156.800 C 316.733 156.800,332.800 156.664,332.800 156.400 C 332.800 156.136,316.733 156.000,285.400 156.000 C 254.067 156.000,238.000 156.136,238.000 156.400 M340.815 159.561 C 341.577 160.200,342.274 160.650,342.365 160.563 C 342.589 160.346,340.296 158.401,339.815 158.400 C 339.603 158.400,340.053 158.922,340.815 159.561 M342.814 161.038 C 342.835 161.550,344.796 163.886,344.798 163.400 C 344.798 163.180,344.349 162.477,343.800 161.838 C 343.250 161.199,342.806 160.839,342.814 161.038 M345.628 165.476 C 345.718 166.515,346.344 167.396,346.372 166.524 C 346.387 166.042,346.220 165.536,346.000 165.400 C 345.780 165.264,345.613 165.298,345.628 165.476 M346.600 227.400 C 346.600 260.028,346.735 286.640,346.900 286.538 C 347.065 286.436,347.200 259.824,347.200 227.400 C 347.200 194.976,347.065 168.364,346.900 168.262 C 346.735 168.160,346.600 194.772,346.600 227.400 M399.441 211.100 C 399.311 212.365,399.360 214.390,399.552 215.600 C 399.867 217.589,399.905 217.369,399.950 213.300 C 400.005 208.370,399.810 207.527,399.441 211.100 M398.739 220.876 C 398.615 222.751,398.787 224.547,399.123 224.883 C 399.316 225.076,399.505 224.183,399.554 222.850 C 399.634 220.632,398.876 218.798,398.739 220.876 M398.006 228.700 C 398.010 230.333,398.125 230.826,398.400 230.400 C 398.912 229.608,398.912 226.400,398.400 226.400 C 398.179 226.400,398.003 227.429,398.006 228.700 M397.200 233.800 C 397.200 234.790,397.380 235.600,397.600 235.600 C 397.820 235.600,398.000 234.790,398.000 233.800 C 398.000 232.810,397.820 232.000,397.600 232.000 C 397.380 232.000,397.200 232.810,397.200 233.800 M396.400 238.200 C 396.400 239.190,396.580 240.000,396.800 240.000 C 397.020 240.000,397.200 239.190,397.200 238.200 C 397.200 237.210,397.020 236.400,396.800 236.400 C 396.580 236.400,396.400 237.210,396.400 238.200 M395.600 242.000 C 395.600 242.660,395.780 243.200,396.000 243.200 C 396.220 243.200,396.400 242.660,396.400 242.000 C 396.400 241.340,396.220 240.800,396.000 240.800 C 395.780 240.800,395.600 241.340,395.600 242.000 M394.800 245.600 C 394.800 246.480,394.620 247.200,394.400 247.200 C 394.180 247.200,394.000 247.931,394.000 248.824 C 394.000 250.796,394.628 250.582,394.942 248.503 C 395.067 247.676,395.286 246.325,395.428 245.500 C 395.599 244.512,395.536 244.000,395.244 244.000 C 394.993 244.000,394.800 244.695,394.800 245.600 M393.200 252.000 C 393.200 252.660,393.020 253.200,392.800 253.200 C 392.580 253.200,392.400 253.729,392.400 254.376 C 392.400 255.023,392.580 255.664,392.800 255.800 C 393.038 255.947,393.200 255.479,393.200 254.647 C 393.200 253.877,393.380 253.136,393.600 253.000 C 393.820 252.864,394.000 252.313,394.000 251.776 C 394.000 251.239,393.820 250.800,393.600 250.800 C 393.380 250.800,393.200 251.340,393.200 252.000 M391.600 257.400 C 391.600 258.170,391.420 258.800,391.200 258.800 C 390.980 258.800,390.800 259.329,390.800 259.976 C 390.800 260.623,390.620 261.264,390.400 261.400 C 390.180 261.536,390.000 262.087,390.000 262.624 C 390.000 263.161,389.820 263.600,389.600 263.600 C 389.380 263.600,389.200 264.065,389.200 264.633 C 389.200 265.291,389.382 265.600,389.700 265.483 C 389.975 265.382,390.147 265.073,390.082 264.795 C 390.017 264.518,390.332 263.507,390.782 262.550 C 391.232 261.592,391.600 260.357,391.600 259.804 C 391.600 259.252,391.780 258.800,392.000 258.800 C 392.220 258.800,392.400 258.170,392.400 257.400 C 392.400 256.630,392.220 256.000,392.000 256.000 C 391.780 256.000,391.600 256.630,391.600 257.400 M388.400 267.200 C 388.400 267.860,388.199 268.400,387.953 268.400 C 387.693 268.400,387.586 268.816,387.698 269.400 C 387.826 270.071,387.710 270.400,387.345 270.400 C 387.030 270.400,386.800 270.823,386.800 271.400 C 386.800 271.950,386.620 272.400,386.400 272.400 C 386.180 272.400,386.000 272.670,386.000 273.000 C 386.000 273.330,386.270 273.600,386.600 273.600 C 386.933 273.600,387.200 273.244,387.200 272.800 C 387.200 272.360,387.380 272.000,387.600 272.000 C 387.820 272.000,388.000 271.676,388.000 271.280 C 388.000 270.884,388.165 270.389,388.367 270.180 C 388.569 269.971,388.821 269.260,388.928 268.600 C 389.035 267.940,389.249 267.085,389.404 266.700 C 389.602 266.207,389.496 266.000,389.043 266.000 C 388.595 266.000,388.400 266.364,388.400 267.200 M385.900 274.276 C 385.515 274.376,385.200 274.800,385.200 275.217 C 385.200 276.190,386.244 275.839,386.523 274.772 C 386.634 274.348,386.697 274.021,386.663 274.046 C 386.628 274.072,386.285 274.175,385.900 274.276 M384.694 276.639 C 384.563 276.771,384.543 277.107,384.651 277.387 C 384.758 277.668,384.580 277.999,384.254 278.124 C 383.885 278.266,383.743 278.661,383.878 279.176 C 384.000 279.645,383.901 280.000,383.647 280.000 C 383.401 280.000,383.200 280.345,383.200 280.767 C 383.200 281.188,383.010 281.597,382.778 281.674 C 382.546 281.751,382.311 282.121,382.256 282.496 C 382.201 282.870,382.031 283.302,381.878 283.455 C 381.460 283.873,381.544 284.800,382.000 284.800 C 382.220 284.800,382.400 284.570,382.400 284.290 C 382.400 284.009,382.934 282.704,383.587 281.390 C 384.241 280.075,384.781 278.775,384.787 278.500 C 384.794 278.225,384.980 278.000,385.200 278.000 C 385.420 278.000,385.600 277.640,385.600 277.200 C 385.600 276.420,385.176 276.158,384.694 276.639 M380.800 286.000 C 380.800 286.440,380.620 286.800,380.400 286.800 C 380.180 286.800,380.000 287.145,380.000 287.567 C 380.000 287.988,379.788 288.404,379.528 288.491 C 379.232 288.589,379.171 288.938,379.363 289.424 C 379.626 290.088,379.763 289.968,380.309 288.600 C 380.661 287.720,381.095 286.940,381.274 286.867 C 381.743 286.675,381.677 285.200,381.200 285.200 C 380.980 285.200,380.800 285.560,380.800 286.000 M377.805 291.700 C 377.374 292.635,376.957 293.535,376.877 293.700 C 376.798 293.865,376.928 294.000,377.167 294.000 C 377.405 294.000,377.600 293.719,377.600 293.376 C 377.600 293.007,377.788 292.869,378.062 293.038 C 378.318 293.196,378.416 293.150,378.282 292.933 C 378.150 292.718,378.302 292.040,378.620 291.426 C 379.286 290.143,379.314 290.000,378.894 290.000 C 378.726 290.000,378.236 290.765,377.805 291.700 M342.573 293.383 C 341.458 294.551,339.838 295.879,338.973 296.335 C 338.108 296.791,337.638 297.173,337.928 297.182 C 339.128 297.223,344.800 292.550,344.800 291.522 C 344.800 291.054,344.786 291.066,342.573 293.383 M376.000 294.976 C 376.000 295.293,376.180 295.664,376.400 295.800 C 376.620 295.936,376.800 295.677,376.800 295.224 C 376.800 294.771,376.620 294.400,376.400 294.400 C 376.180 294.400,376.000 294.659,376.000 294.976 M375.200 296.600 C 375.200 296.930,375.054 297.200,374.875 297.200 C 374.696 297.200,374.302 297.830,374.000 298.600 C 373.698 299.370,373.304 300.000,373.125 300.000 C 372.946 300.000,372.800 300.270,372.800 300.600 C 372.800 301.765,373.555 301.178,374.472 299.300 C 374.982 298.255,375.535 297.340,375.700 297.267 C 376.147 297.068,376.063 296.000,375.600 296.000 C 375.380 296.000,375.200 296.270,375.200 296.600 M66.600 302.404 C 69.900 305.766,73.320 309.274,74.200 310.201 C 77.900 314.099,138.124 374.409,138.217 374.309 C 138.273 374.249,121.168 356.920,100.206 335.800 C 76.495 311.911,62.264 297.289,62.546 297.106 C 62.881 296.890,62.877 296.811,62.533 296.806 C 62.276 296.803,61.736 296.686,61.333 296.547 C 60.930 296.407,63.300 299.043,66.600 302.404 M63.424 297.638 C 63.547 297.837,64.387 298.000,65.290 298.000 C 67.321 298.000,67.152 297.781,64.900 297.493 C 63.930 297.369,63.296 297.432,63.424 297.638 M335.600 297.600 L 334.600 297.920 335.700 297.960 C 336.305 297.982,336.800 297.820,336.800 297.600 C 336.800 297.380,336.755 297.218,336.700 297.240 C 336.645 297.262,336.150 297.424,335.600 297.600 M232.700 298.300 C 251.015 298.358,280.985 298.358,299.300 298.300 C 317.615 298.242,302.630 298.195,266.000 298.195 C 229.370 298.195,214.385 298.242,232.700 298.300 M372.000 302.200 C 372.000 302.530,371.820 302.800,371.600 302.800 C 371.380 302.800,371.200 303.070,371.200 303.400 C 371.200 303.730,371.012 304.000,370.782 304.000 C 370.553 304.000,370.418 304.253,370.482 304.562 C 370.547 304.871,370.238 305.456,369.794 305.862 C 369.351 306.268,368.631 307.308,368.194 308.174 C 367.758 309.040,367.085 310.075,366.700 310.474 C 366.315 310.873,366.000 311.470,366.000 311.800 C 366.000 312.130,365.816 312.400,365.591 312.400 C 365.367 312.400,364.966 312.895,364.701 313.500 C 364.435 314.105,363.899 314.891,363.509 315.247 C 363.119 315.603,362.800 316.098,362.800 316.347 C 362.800 316.596,362.620 316.800,362.400 316.800 C 362.180 316.800,362.000 317.070,362.000 317.400 C 362.000 317.730,361.850 318.000,361.668 318.000 C 361.485 318.000,361.080 318.495,360.768 319.100 C 360.455 319.705,359.705 320.677,359.100 321.260 C 358.495 321.844,358.000 322.427,358.000 322.556 C 358.000 322.831,356.976 324.111,355.700 325.432 C 355.205 325.944,354.800 326.525,354.800 326.722 C 354.800 326.920,353.730 328.161,352.421 329.482 C 350.566 331.355,350.148 331.990,350.521 332.370 C 350.828 332.682,350.842 332.811,350.560 332.729 C 349.984 332.561,332.561 349.984,332.729 350.560 C 332.811 350.842,332.682 350.828,332.370 350.521 C 331.990 350.148,331.355 350.566,329.482 352.421 C 328.161 353.730,326.920 354.800,326.722 354.800 C 326.525 354.800,325.944 355.205,325.432 355.700 C 324.111 356.976,322.831 358.000,322.556 358.000 C 322.427 358.000,321.844 358.495,321.260 359.100 C 320.677 359.705,319.705 360.455,319.100 360.768 C 318.495 361.080,318.000 361.485,318.000 361.668 C 318.000 361.850,317.730 362.000,317.400 362.000 C 317.070 362.000,316.800 362.180,316.800 362.400 C 316.800 362.620,316.596 362.800,316.347 362.800 C 316.098 362.800,315.603 363.119,315.247 363.509 C 314.891 363.899,314.105 364.435,313.500 364.701 C 312.895 364.966,312.400 365.367,312.400 365.591 C 312.400 365.816,312.130 366.000,311.800 366.000 C 311.470 366.000,310.873 366.315,310.474 366.700 C 310.075 367.085,309.040 367.758,308.174 368.194 C 307.308 368.631,306.268 369.351,305.862 369.794 C 305.456 370.238,304.871 370.547,304.562 370.482 C 304.253 370.418,304.000 370.553,304.000 370.782 C 304.000 371.012,303.730 371.200,303.400 371.200 C 303.070 371.200,302.800 371.380,302.800 371.600 C 302.800 371.820,302.530 372.000,302.200 372.000 C 301.870 372.000,301.600 372.270,301.600 372.600 C 301.600 373.274,302.225 373.406,302.593 372.811 C 302.726 372.597,303.413 372.147,304.121 371.811 C 304.829 371.475,305.863 370.795,306.419 370.300 C 306.975 369.805,307.691 369.341,308.011 369.268 C 308.331 369.195,308.684 369.015,308.796 368.867 C 308.908 368.720,309.495 368.344,310.100 368.032 C 310.705 367.720,311.200 367.315,311.200 367.132 C 311.200 366.950,311.478 366.800,311.818 366.800 C 312.158 366.800,312.890 366.347,313.444 365.792 C 313.998 365.238,314.648 364.906,314.888 365.054 C 315.149 365.215,315.209 365.138,315.038 364.862 C 314.877 364.601,314.985 364.400,315.288 364.400 C 315.583 364.400,316.083 364.040,316.400 363.600 C 316.717 363.160,317.257 362.800,317.600 362.800 C 317.943 362.800,318.483 362.440,318.800 362.000 C 319.117 361.560,319.530 361.200,319.717 361.200 C 319.904 361.200,320.289 360.975,320.573 360.700 C 321.809 359.501,323.611 358.000,323.813 358.000 C 324.061 358.000,324.784 357.425,326.201 356.100 C 326.730 355.605,327.364 355.200,327.608 355.200 C 327.852 355.200,328.929 354.300,330.000 353.200 C 331.071 352.100,332.114 351.200,332.318 351.200 C 332.521 351.200,334.648 349.222,337.044 346.804 C 342.320 341.479,341.479 342.320,346.804 337.044 C 349.222 334.648,351.200 332.521,351.200 332.318 C 351.200 332.114,352.100 331.071,353.200 330.000 C 354.300 328.929,355.200 327.852,355.200 327.608 C 355.200 327.364,355.605 326.730,356.100 326.201 C 357.425 324.784,358.000 324.061,358.000 323.813 C 358.000 323.611,359.501 321.809,360.700 320.573 C 360.975 320.289,361.200 319.904,361.200 319.717 C 361.200 319.530,361.560 319.117,362.000 318.800 C 362.440 318.483,362.800 317.943,362.800 317.600 C 362.800 317.257,363.160 316.717,363.600 316.400 C 364.040 316.083,364.400 315.583,364.400 315.288 C 364.400 314.985,364.601 314.877,364.862 315.038 C 365.138 315.209,365.215 315.149,365.054 314.888 C 364.906 314.648,365.238 313.998,365.792 313.444 C 366.347 312.890,366.800 312.158,366.800 311.818 C 366.800 311.478,366.950 311.200,367.132 311.200 C 367.315 311.200,367.720 310.705,368.032 310.100 C 368.344 309.495,368.720 308.908,368.867 308.796 C 369.015 308.684,369.195 308.331,369.268 308.011 C 369.341 307.691,369.805 306.975,370.300 306.419 C 370.795 305.863,371.475 304.829,371.811 304.121 C 372.147 303.413,372.597 302.726,372.811 302.593 C 373.406 302.225,373.274 301.600,372.600 301.600 C 372.270 301.600,372.000 301.870,372.000 302.200 M300.000 373.125 C 300.000 373.304,299.370 373.698,298.600 374.000 C 297.830 374.302,297.200 374.696,297.200 374.875 C 297.200 375.054,296.930 375.200,296.600 375.200 C 296.270 375.200,296.000 375.380,296.000 375.600 C 296.000 376.063,297.068 376.147,297.267 375.700 C 297.340 375.535,298.255 374.982,299.300 374.472 C 301.178 373.555,301.765 372.800,300.600 372.800 C 300.270 372.800,300.000 372.946,300.000 373.125 M139.802 376.402 C 140.202 376.844,140.611 377.122,140.712 377.021 C 140.928 376.805,139.788 375.600,139.367 375.600 C 139.207 375.600,139.403 375.961,139.802 376.402 M294.400 376.400 C 294.400 376.620,294.771 376.800,295.224 376.800 C 295.677 376.800,295.936 376.620,295.800 376.400 C 295.664 376.180,295.293 376.000,294.976 376.000 C 294.659 376.000,294.400 376.180,294.400 376.400 M291.800 377.723 C 289.772 378.804,289.829 378.762,290.074 379.007 C 290.188 379.121,290.790 378.950,291.412 378.628 C 292.034 378.305,292.718 378.150,292.933 378.282 C 293.150 378.416,293.196 378.318,293.038 378.062 C 292.869 377.788,293.007 377.600,293.376 377.600 C 293.719 377.600,294.000 377.420,294.000 377.200 C 294.000 376.652,293.657 376.734,291.800 377.723 M288.400 379.600 C 288.400 379.820,288.040 380.000,287.600 380.000 C 287.160 380.000,286.800 380.180,286.800 380.400 C 286.800 380.620,286.440 380.800,286.000 380.800 C 285.560 380.800,285.200 380.980,285.200 381.200 C 285.200 381.420,285.560 381.600,286.000 381.600 C 286.440 381.600,286.800 381.449,286.800 381.264 C 286.800 381.079,287.514 380.692,288.387 380.404 C 289.259 380.116,289.879 379.728,289.763 379.540 C 289.470 379.066,288.400 379.113,288.400 379.600 M143.606 379.717 C 143.603 379.892,144.995 381.436,146.700 383.148 C 148.405 384.861,152.005 388.514,154.700 391.267 C 157.395 394.019,159.600 396.129,159.600 395.955 C 159.600 395.537,143.615 379.307,143.606 379.717 M283.455 381.878 C 283.302 382.031,282.870 382.201,282.496 382.256 C 282.121 382.311,281.751 382.546,281.674 382.778 C 281.597 383.010,281.188 383.200,280.767 383.200 C 280.345 383.200,280.000 383.401,280.000 383.647 C 280.000 383.901,279.645 384.000,279.176 383.878 C 278.668 383.745,278.266 383.883,278.130 384.238 C 278.008 384.555,277.633 384.766,277.296 384.707 C 276.959 384.648,276.604 384.825,276.508 385.100 C 276.405 385.396,276.673 385.600,277.167 385.600 C 277.625 385.600,278.000 385.420,278.000 385.200 C 278.000 384.980,278.225 384.794,278.500 384.787 C 278.775 384.781,280.075 384.241,281.390 383.587 C 282.704 382.934,284.009 382.400,284.290 382.400 C 284.570 382.400,284.800 382.220,284.800 382.000 C 284.800 381.544,283.873 381.460,283.455 381.878 M274.297 385.949 C 274.149 386.517,274.276 386.653,274.823 386.510 C 275.840 386.244,276.167 385.200,275.234 385.200 C 274.827 385.200,274.405 385.537,274.297 385.949 M272.400 386.400 C 272.400 386.620,271.950 386.800,271.400 386.800 C 270.823 386.800,270.400 387.030,270.400 387.345 C 270.400 387.710,270.071 387.826,269.400 387.698 C 268.816 387.586,268.400 387.693,268.400 387.953 C 268.400 388.199,267.860 388.400,267.200 388.400 C 266.364 388.400,266.000 388.595,266.000 389.043 C 266.000 389.496,266.207 389.602,266.700 389.404 C 267.085 389.249,267.940 389.035,268.600 388.928 C 269.260 388.821,269.971 388.569,270.180 388.367 C 270.389 388.165,270.884 388.000,271.280 388.000 C 271.676 388.000,272.000 387.820,272.000 387.600 C 272.000 387.380,272.360 387.200,272.800 387.200 C 273.244 387.200,273.600 386.933,273.600 386.600 C 273.600 386.270,273.330 386.000,273.000 386.000 C 272.670 386.000,272.400 386.180,272.400 386.400 M263.600 389.600 C 263.600 389.820,263.161 390.000,262.624 390.000 C 262.087 390.000,261.536 390.180,261.400 390.400 C 261.264 390.620,260.623 390.800,259.976 390.800 C 259.329 390.800,258.800 390.980,258.800 391.200 C 258.800 391.420,258.170 391.600,257.400 391.600 C 256.630 391.600,256.000 391.780,256.000 392.000 C 256.000 392.220,256.630 392.400,257.400 392.400 C 258.170 392.400,258.800 392.220,258.800 392.000 C 258.800 391.780,259.252 391.600,259.804 391.600 C 260.357 391.600,261.592 391.232,262.550 390.782 C 263.507 390.332,264.518 390.017,264.795 390.082 C 265.073 390.147,265.382 389.975,265.483 389.700 C 265.600 389.382,265.291 389.200,264.633 389.200 C 264.065 389.200,263.600 389.380,263.600 389.600 M253.200 392.800 C 253.200 393.020,252.660 393.200,252.000 393.200 C 251.340 393.200,250.800 393.380,250.800 393.600 C 250.800 393.820,251.239 394.000,251.776 394.000 C 252.313 394.000,252.864 393.820,253.000 393.600 C 253.136 393.380,253.877 393.200,254.647 393.200 C 255.479 393.200,255.947 393.038,255.800 392.800 C 255.664 392.580,255.023 392.400,254.376 392.400 C 253.729 392.400,253.200 392.580,253.200 392.800 M247.200 394.400 C 247.200 394.620,246.480 394.800,245.600 394.800 C 244.695 394.800,244.000 394.993,244.000 395.244 C 244.000 395.536,244.512 395.599,245.500 395.428 C 246.325 395.286,247.676 395.067,248.503 394.942 C 250.582 394.628,250.796 394.000,248.824 394.000 C 247.931 394.000,247.200 394.180,247.200 394.400 M240.800 396.000 C 240.800 396.220,241.340 396.400,242.000 396.400 C 242.660 396.400,243.200 396.220,243.200 396.000 C 243.200 395.780,242.660 395.600,242.000 395.600 C 241.340 395.600,240.800 395.780,240.800 396.000 M161.000 396.800 C 160.851 397.042,161.396 397.200,162.376 397.200 C 163.269 397.200,164.000 397.020,164.000 396.800 C 164.000 396.580,163.381 396.400,162.624 396.400 C 161.867 396.400,161.136 396.580,161.000 396.800 M236.400 396.800 C 236.400 397.020,237.210 397.200,238.200 397.200 C 239.190 397.200,240.000 397.020,240.000 396.800 C 240.000 396.580,239.190 396.400,238.200 396.400 C 237.210 396.400,236.400 396.580,236.400 396.800 M165.800 397.123 C 164.231 397.426,164.419 397.851,166.161 397.942 C 167.135 397.992,168.035 397.866,168.161 397.662 C 168.428 397.232,166.967 396.898,165.800 397.123 M232.000 397.600 C 232.000 397.820,232.810 398.000,233.800 398.000 C 234.790 398.000,235.600 397.820,235.600 397.600 C 235.600 397.380,234.790 397.200,233.800 397.200 C 232.810 397.200,232.000 397.380,232.000 397.600 M170.267 397.867 C 169.631 398.502,170.120 398.800,171.800 398.800 C 173.702 398.800,174.216 398.258,172.700 397.852 C 171.510 397.533,170.595 397.539,170.267 397.867 M226.400 398.400 C 226.400 398.912,229.608 398.912,230.400 398.400 C 230.826 398.125,230.333 398.010,228.700 398.006 C 227.429 398.003,226.400 398.179,226.400 398.400 M175.895 398.677 C 174.517 399.036,175.681 399.600,177.800 399.600 C 180.340 399.600,181.024 399.008,178.892 398.655 C 177.290 398.391,176.983 398.393,175.895 398.677 M220.804 398.779 C 219.200 399.190,220.518 399.653,223.006 399.552 C 224.225 399.503,225.080 399.320,224.907 399.147 C 224.459 398.699,221.983 398.477,220.804 398.779 M183.800 399.600 C 183.034 399.795,184.192 399.906,187.000 399.907 C 190.341 399.908,191.015 399.828,189.800 399.577 C 187.866 399.177,185.426 399.186,183.800 399.600 M210.000 399.600 C 209.096 399.790,210.231 399.894,213.200 399.894 C 216.843 399.893,217.384 399.828,215.800 399.582 C 213.380 399.205,211.855 399.210,210.000 399.600 " stroke="none" fill="#fc7810" fill-rule="evenodd"></path></g></svg>