<?xml version="1.0" standalone="no"?>
<!DOCTYPE svg PUBLIC "-//W3C//DTD SVG 20010904//EN"
 "http://www.w3.org/TR/2001/REC-SVG-20010904/DTD/svg10.dtd">
<svg version="1.0" xmlns="http://www.w3.org/2000/svg"
 width="512.000000pt" height="512.000000pt" viewBox="0 0 512.000000 512.000000"
 preserveAspectRatio="xMidYMid meet">

<g transform="translate(0.000000,512.000000) scale(0.100000,-0.100000)"
fill="#000000" stroke="none">
<path d="M383 5105 c-180 -49 -321 -191 -368 -372 -22 -84 -22 -3272 0 -3376
34 -160 153 -294 313 -350 49 -18 89 -21 295 -25 130 -2 237 -5 237 -6 0 -25
-27 -66 -48 -75 -15 -6 -119 -28 -232 -51 -282 -55 -377 -104 -464 -235 -56
-83 -75 -152 -98 -353 l-21 -183 20 -27 c11 -15 31 -33 44 -39 19 -10 266 -12
1136 -10 l1111 2 25 23 c14 13 28 35 31 48 9 33 -31 358 -50 417 -41 123 -130
225 -248 282 -56 27 -116 43 -279 75 -115 23 -220 46 -232 52 -28 13 -45 55
-45 113 l0 43 99 56 c115 65 177 128 212 215 21 52 23 75 27 296 l4 240 28 28
c16 16 39 54 50 85 20 52 21 73 18 242 -3 178 -4 187 -31 245 -43 92 -119 161
-217 199 -14 6 -238 12 -515 16 l-490 5 -62 34 c-75 41 -115 38 -171 -14 l-37
-33 -3 -227 c-3 -255 3 -297 64 -397 l34 -56 0 -279 c0 -347 11 -402 104 -501
l30 -32 -100 0 c-168 0 -257 42 -318 150 l-31 55 -3 1088 -2 1087 575 0 575 0
31 28 c23 21 31 37 32 64 1 42 -24 85 -59 98 -15 6 -255 10 -590 10 l-564 0 0
140 0 140 2090 0 2090 0 0 -100 0 -99 -872 -3 c-861 -3 -874 -3 -928 -24 -111
-43 -165 -77 -240 -153 -87 -87 -132 -165 -160 -277 -19 -72 -20 -112 -20
-559 0 -447 1 -487 20 -559 28 -112 73 -190 160 -277 121 -122 229 -168 418
-176 l122 -6 0 -153 c0 -97 4 -163 12 -179 15 -32 56 -55 99 -55 29 0 55 22
229 195 l196 195 483 0 482 0 -3 -212 -3 -213 -31 -55 c-17 -30 -50 -70 -73
-87 -83 -64 -69 -63 -878 -63 -787 0 -776 1 -803 -49 -15 -28 -12 -83 5 -107
31 -45 32 -45 835 -42 745 3 766 4 822 24 161 59 279 191 313 351 10 45 15
132 15 260 l0 193 28 6 c154 33 256 88 349 189 75 81 116 156 144 263 17 69
19 114 19 557 0 443 -2 488 -19 557 -28 107 -69 182 -144 263 -93 101 -195
156 -349 189 l-28 6 0 418 c0 338 -3 429 -15 475 -48 183 -189 324 -372 372
-84 22 -3729 21 -3810 0z m3817 -216 c70 -34 116 -80 149 -149 25 -53 26 -63
29 -277 l4 -223 -2092 0 -2092 0 4 223 c3 214 4 224 29 277 42 90 119 151 212
170 23 4 865 7 1872 6 l1830 -1 55 -26z m-1287 -1999 c72 -79 -18 -194 -117
-149 -33 15 -59 71 -51 108 6 28 37 63 65 74 29 12 75 -3 103 -33z m794 9 c46
-44 37 -126 -18 -154 -57 -30 -120 -7 -139 50 -33 99 81 175 157 104z m800 0
c63 -60 19 -169 -67 -169 -60 0 -108 60 -95 118 6 29 36 64 65 75 25 10 73 -2
97 -24z m-3362 -419 c357 -4 496 -8 511 -17 43 -24 83 -81 89 -127 9 -58 2
-292 -8 -303 -5 -4 -212 -8 -460 -8 -437 0 -453 1 -497 21 -58 27 -108 77
-134 134 -17 37 -21 70 -24 184 -4 132 -3 138 15 130 10 -5 239 -11 508 -14z
m98 -660 l408 0 -3 -203 c-4 -266 9 -245 -245 -389 -126 -72 -199 -108 -219
-108 -36 0 -386 196 -421 235 -36 40 -43 89 -43 296 l0 196 58 -13 c43 -10
158 -14 465 -14z m-58 -894 c44 0 92 4 108 9 24 7 27 5 27 -17 0 -13 12 -48
26 -77 22 -44 24 -55 13 -62 -59 -38 -232 -46 -311 -16 -27 10 -48 22 -48 25
0 4 11 29 25 56 14 27 25 60 25 74 0 22 3 23 28 16 15 -5 63 -9 107 -8z m-346
-275 c188 -148 504 -148 692 0 20 16 46 29 56 29 11 0 98 -16 193 -35 224 -45
281 -78 330 -187 19 -44 39 -155 40 -225 l0 -33 -965 0 -965 0 0 34 c0 69 22
191 42 230 26 53 74 103 121 127 37 20 333 86 391 88 17 1 42 -10 65 -28z"/>
<path d="M494 4651 c-57 -35 -64 -108 -17 -156 51 -51 140 -29 163 40 15 44
-7 98 -49 119 -39 21 -59 20 -97 -3z"/>
<path d="M974 4651 c-45 -27 -61 -79 -39 -124 55 -118 231 -43 181 76 -14 36
-58 67 -93 67 -10 0 -32 -9 -49 -19z"/>
<path d="M1454 4651 c-41 -25 -59 -75 -43 -118 32 -93 173 -82 192 15 8 43
-17 91 -57 107 -46 19 -55 19 -92 -4z"/>
<path d="M2705 4661 c-89 -37 -79 -166 14 -191 27 -7 237 -10 654 -8 689 3
655 -1 678 77 10 34 9 44 -8 73 -10 18 -30 39 -44 45 -18 10 -171 13 -649 12
-344 0 -634 -4 -645 -8z"/>
<path d="M1655 3751 c-37 -16 -60 -51 -60 -93 0 -70 77 -118 138 -87 76 39 74
151 -4 178 -37 13 -46 13 -74 2z"/>
<path d="M2221 1166 c-13 -7 -30 -24 -37 -37 -57 -102 77 -198 157 -113 73 78
-26 202 -120 150z"/>
</g>
</svg>
