<svg xmlns="http://www.w3.org/2000/svg" width="512" height="512" viewBox="0 0 512 512" version="1.1"><path d="M 49.750 115.706 C 50.987 115.944, 53.013 115.944, 54.250 115.706 C 55.487 115.467, 54.475 115.272, 52 115.272 C 49.525 115.272, 48.513 115.467, 49.750 115.706 M 142.250 115.750 C 180.063 115.895, 241.938 115.895, 279.750 115.750 C 317.563 115.605, 286.625 115.486, 211 115.486 C 135.375 115.486, 104.438 115.605, 142.250 115.750 M 411.946 207.283 L 408.391 211.500 412.212 215.266 L 416.033 219.033 419.266 215.350 C 421.045 213.324, 422.500 211.367, 422.500 211 C 422.500 210.325, 416.298 202.972, 415.781 203.033 C 415.626 203.051, 413.900 204.963, 411.946 207.283 M 314.746 410.264 C 312.681 415.344, 310.993 419.960, 310.996 420.522 C 310.998 421.084, 314.750 425.274, 319.332 429.833 L 327.665 438.123 337.903 433.894 L 348.140 429.666 333.833 415.333 C 325.964 407.450, 319.295 401.006, 319.013 401.014 C 318.731 401.022, 316.810 405.184, 314.746 410.264" stroke="none" fill="#e3b61e" fill-rule="evenodd"/><path d="M 115.250 135.750 C 160.762 135.894, 235.237 135.894, 280.750 135.750 C 326.262 135.606, 289.025 135.488, 198 135.488 C 106.975 135.488, 69.737 135.606, 115.250 135.750 M 314.487 244.250 L 300.500 258.500 314.750 244.513 C 327.988 231.520, 329.453 230, 328.737 230 C 328.592 230, 322.179 236.412, 314.487 244.250 M 280 243.275 C 280 243.426, 283.488 246.914, 287.750 251.025 L 295.500 258.500 288.025 250.750 C 281.082 243.552, 280 242.544, 280 243.275 M 77.750 249.706 C 78.987 249.944, 81.013 249.944, 82.250 249.706 C 83.487 249.467, 82.475 249.272, 80 249.272 C 77.525 249.272, 76.513 249.467, 77.750 249.706 M 145.323 249.750 C 163.375 249.902, 192.625 249.902, 210.323 249.749 C 228.020 249.596, 213.250 249.471, 177.500 249.472 C 141.750 249.472, 127.270 249.597, 145.323 249.750 M 309.761 287.728 L 298.033 299.457 292.766 294.491 L 287.500 289.526 292.753 295.005 L 298.007 300.483 310.248 288.241 C 316.981 281.509, 322.265 276, 321.990 276 C 321.714 276, 316.212 281.278, 309.761 287.728 M 77.768 292.725 C 79.565 292.947, 82.265 292.943, 83.768 292.715 C 85.271 292.486, 83.800 292.304, 80.500 292.310 C 77.200 292.315, 75.971 292.502, 77.768 292.725 M 144.750 292.750 C 163.037 292.902, 192.962 292.902, 211.250 292.750 C 229.537 292.597, 214.575 292.472, 178 292.472 C 141.425 292.472, 126.462 292.597, 144.750 292.750 M 370.012 345.488 L 324.533 390.975 330.998 397.498 L 337.462 404.020 357.990 383.510 C 372.159 369.353, 379.194 363, 380.702 363 C 382.768 363, 386 366.305, 386 368.418 C 386 368.953, 376.676 378.754, 365.280 390.197 L 344.560 411.003 351.014 417.514 L 357.467 424.025 402.733 378.767 C 427.630 353.874, 448 333.042, 448 332.473 C 448 331.903, 445.296 328.762, 441.992 325.492 L 435.984 319.546 423.742 331.639 C 417.009 338.290, 410.764 343.983, 409.865 344.290 C 407.545 345.083, 404 342.295, 404 339.678 C 404 338.187, 407.901 333.578, 416 325.500 C 422.600 318.917, 428 313.060, 428 312.484 C 428 311.477, 416.938 300, 415.967 300 C 415.706 300, 395.026 320.469, 370.012 345.488 M 77.768 302.725 C 79.565 302.947, 82.265 302.943, 83.768 302.715 C 85.271 302.486, 83.800 302.304, 80.500 302.310 C 77.200 302.315, 75.971 302.502, 77.768 302.725 M 144.750 302.750 C 163.037 302.902, 192.962 302.902, 211.250 302.750 C 229.537 302.597, 214.575 302.472, 178 302.472 C 141.425 302.472, 126.462 302.597, 144.750 302.750 M 333.913 354.704 L 305.326 383.500 290.163 420.175 C 281.673 440.711, 275 458.225, 275 459.975 C 275 467.101, 281.070 473.155, 288.282 473.220 C 291.497 473.249, 300.820 469.797, 327.500 458.699 L 362.500 444.141 362.802 438.502 L 363.104 432.863 360.302 434.867 C 357.493 436.876, 290.204 465, 288.206 465 C 286.476 465, 284 462.008, 284 459.918 C 284 458.852, 290.357 442.571, 298.126 423.740 L 312.252 389.500 337.678 363.940 L 363.105 338.380 362.803 332.144 L 362.500 325.908 333.913 354.704 M 391.200 350.200 C 388.603 352.797, 391.161 359, 394.829 359 C 396.468 359, 400 355.292, 400 353.571 C 400 349.900, 393.854 347.546, 391.200 350.200 M 77.750 409.706 C 78.987 409.944, 81.013 409.944, 82.250 409.706 C 83.487 409.467, 82.475 409.272, 80 409.272 C 77.525 409.272, 76.513 409.467, 77.750 409.706 M 145.323 409.750 C 163.375 409.902, 192.625 409.902, 210.323 409.749 C 228.020 409.596, 213.250 409.471, 177.500 409.472 C 141.750 409.472, 127.270 409.597, 145.323 409.750 M 303.255 438.720 C 301.516 442.999, 299.800 447.285, 299.442 448.244 C 298.911 449.664, 300.431 449.305, 307.645 446.303 C 312.515 444.276, 316.704 442.463, 316.953 442.273 C 317.202 442.083, 314.934 439.455, 311.912 436.434 L 306.418 430.940 303.255 438.720" stroke="none" fill="#72c2e9" fill-rule="evenodd"/><path d="M 79.655 10.459 C 70.215 13.824, 67.053 20.132, 67.022 35.652 L 67 46.804 53.750 47.181 C 38.731 47.609, 34.921 48.909, 29.030 55.618 C 22.101 63.510, 22.529 57.459, 22.223 151.884 C 21.920 245.090, 21.741 242, 27.466 242 C 33.010 242, 33 242.098, 33 186.277 L 33 135 198 135 L 363 135 363 236.743 L 363 338.486 337.637 363.993 L 312.274 389.500 298.137 423.837 C 290.362 442.722, 284 458.965, 284 459.932 C 284 461.646, 286.913 465, 288.402 465 C 290.252 465, 359.668 435.706, 361.284 434.243 C 363.035 432.658, 363.089 433.499, 362.800 457.729 C 362.517 481.463, 362.383 483.015, 360.395 485.679 C 359.238 487.231, 356.763 489.400, 354.895 490.500 C 351.540 492.477, 349.702 492.500, 198 492.500 C 44.955 492.500, 44.490 492.494, 41.003 490.446 C 39.080 489.316, 36.493 486.887, 35.253 485.048 L 33 481.704 33 378.852 C 33 277.333, 32.974 275.974, 31 274 C 28.333 271.333, 25.391 271.473, 23.500 274.359 C 22.127 276.456, 21.985 288.228, 22.227 380.109 L 22.500 483.500 25.584 489 C 28.975 495.046, 35.572 500.269, 42.007 502.002 C 44.570 502.692, 96.682 502.944, 200.164 502.765 L 354.500 502.500 358.634 500.289 C 364.093 497.369, 368.876 492.482, 371.129 487.522 C 372.767 483.917, 372.958 480.391, 372.978 453.512 L 373 423.524 428.901 367.512 C 467.738 328.598, 485.498 310.126, 487.082 307 C 490.258 300.727, 490.240 291.205, 487.039 285 C 484.157 279.414, 470.958 265.669, 465.250 262.311 C 459.463 258.905, 450.995 258.188, 443.888 260.501 C 438.908 262.123, 436.023 264.720, 405.750 294.844 L 373 327.432 373 196.912 L 373 66.393 370.410 61.195 C 365.159 50.657, 357.535 47, 340.822 47 L 330 47 329.994 36.750 C 329.987 24.014, 328.786 19.551, 324.104 14.869 C 315.345 6.110, 300.511 8.197, 295.020 18.961 C 293.324 22.284, 293 24.855, 293 34.960 L 293 47 274.123 47 L 255.247 47 254.810 35.250 C 254.302 21.562, 252.765 17.291, 246.793 12.965 C 239.142 7.422, 229.311 8.256, 222.897 14.991 C 218.384 19.731, 217 25, 217 37.443 L 217 47 198 47 L 179 47 179 34.696 C 179 22.871, 178.888 22.216, 176.135 17.874 C 169.769 7.836, 156.356 6.408, 147.896 14.869 C 143.214 19.551, 142.013 24.014, 142.006 36.750 L 142 47 123.079 47 L 104.159 47 103.829 34.172 C 103.528 22.431, 103.288 21.032, 101 17.655 C 98.267 13.622, 90.197 8.973, 86.054 9.044 C 84.649 9.068, 81.770 9.705, 79.655 10.459 M 80.455 22.455 L 78 24.909 78 52.344 C 78 77.659, 78.145 79.957, 79.871 82.089 C 82.471 85.300, 88.529 85.300, 91.129 82.089 C 92.857 79.955, 93 77.650, 93 51.962 L 93 24.145 90.365 22.073 C 86.870 19.323, 83.454 19.455, 80.455 22.455 M 155.455 22.455 L 153 24.909 153 52.266 C 153 78.365, 153.093 79.723, 155.028 81.799 C 159.324 86.411, 165.855 85.141, 168.091 79.261 C 168.696 77.670, 168.975 66.367, 168.796 50.725 L 168.500 24.824 165.694 22.412 C 162.111 19.332, 158.563 19.346, 155.455 22.455 M 230.861 21.910 L 228.500 23.821 228.205 51.442 L 227.909 79.063 230.878 82.032 C 234.620 85.773, 237.368 85.786, 241.077 82.077 L 244 79.154 244 53.011 C 244 26.461, 243.704 24.059, 240.087 21.282 C 237.722 19.466, 233.529 19.752, 230.861 21.910 M 307.303 21.197 C 303.544 23.013, 302.999 27.041, 303.015 52.899 C 303.031 79.301, 303.346 81.214, 308.127 83.898 C 311.446 85.761, 316.202 84.046, 317.870 80.385 C 318.619 78.742, 319 68.972, 319 51.407 L 319 24.909 316.545 22.455 C 313.949 19.858, 310.925 19.447, 307.303 21.197 M 43.619 58.034 C 42.035 58.509, 39.630 59.933, 38.274 61.198 C 33.131 66.002, 33 66.893, 33 96.950 L 33 125 198.043 125 L 363.087 125 362.793 96.071 C 362.460 63.211, 362.564 63.643, 353.941 59.224 C 350.049 57.229, 348.264 56.982, 339.500 57.224 L 329.500 57.500 328.996 70.500 C 328.468 84.090, 327.980 85.787, 323.336 90.186 C 317.916 95.320, 309.843 96.492, 303.210 93.106 C 295.039 88.936, 293 84.028, 293 68.532 L 293 57 273.500 57 L 254 57 254 69.040 C 254 78.881, 253.654 81.757, 252.106 84.790 C 245.232 98.258, 227.032 98.371, 219.855 84.991 C 218.337 82.160, 218 79.303, 218 69.266 L 218 57 198.500 57 L 179 57 179 68.532 C 179 84.236, 176.842 89.288, 168.500 93.119 C 161.389 96.385, 154.064 95.302, 148.664 90.186 C 144.011 85.779, 143.522 84.080, 143 70.500 L 142.500 57.500 123.351 57.229 L 104.202 56.958 103.851 69.804 C 103.520 81.935, 103.343 82.887, 100.677 86.913 C 93.260 98.118, 76.574 97.363, 69.814 85.517 C 67.844 82.065, 67.470 79.778, 67.158 69.250 L 66.794 57 56.647 57.086 C 51.066 57.133, 45.204 57.560, 43.619 58.034 M 412.269 181.656 C 411.593 181.930, 410.117 185.251, 408.989 189.036 C 406.464 197.514, 403.245 201.475, 396.426 204.490 C 387.017 208.651, 387.079 214.007, 396.582 217.945 C 403.401 220.772, 406.414 224.364, 409.007 232.757 C 411.230 239.955, 412.101 240.961, 416.128 240.985 C 419.405 241.004, 420.291 239.891, 422.491 233 C 425.380 223.948, 427.470 221.355, 434.633 217.936 C 441.560 214.631, 442.571 213.412, 441.601 209.545 C 441.152 207.759, 439.246 206.265, 434.564 204.030 C 427.475 200.647, 425.373 198.030, 422.491 189 C 421.525 185.975, 420.290 182.938, 419.745 182.250 C 418.767 181.016, 414.659 180.689, 412.269 181.656 M 120.750 184.080 C 118.574 185.347, 118.477 189.335, 120.571 191.429 C 121.972 192.829, 130.365 193, 197.916 193 C 270.055 193, 273.769 192.912, 275.345 191.171 C 277.423 188.875, 277.452 186.595, 275.429 184.571 C 274.027 183.170, 265.670 183.003, 198.179 183.030 C 148.638 183.050, 121.896 183.413, 120.750 184.080 M 415.003 202.570 C 415.001 203.159, 413.448 205.453, 411.552 207.668 L 408.104 211.696 412.035 215.534 L 415.966 219.373 419.441 215.436 C 421.353 213.271, 422.916 211.275, 422.916 211 C 422.915 210.725, 421.135 208.475, 418.960 206 C 416.785 203.525, 415.004 201.982, 415.003 202.570 M 309.796 234.693 L 298.102 246.387 292.611 241.193 C 289.591 238.337, 286.263 236, 285.215 236 C 283.009 236, 280 238.973, 280 241.151 C 280 242.962, 296.222 259, 298.053 259 C 300.317 259, 329 229.799, 329 227.493 C 329 224.682, 327.145 223, 324.045 223 C 322.117 223, 318.619 225.870, 309.796 234.693 M 73 241 C 70.592 243.408, 70.553 243.917, 72.557 246.777 C 73.865 248.645, 75.051 249, 79.985 249 C 86.237 249, 89 247.463, 89 243.985 C 89 239.190, 77.041 236.959, 73 241 M 110 241 C 107.592 243.408, 107.553 243.917, 109.557 246.777 L 111.113 249 177.485 249 C 236.490 249, 244.032 248.826, 245.429 247.429 C 247.647 245.210, 247.379 242.379, 244.777 240.557 C 242.821 239.186, 234.740 239, 177.277 239 C 113.333 239, 111.959 239.041, 110 241 M 23.408 254.500 C 21.891 256.816, 21.891 257.184, 23.408 259.500 C 25.474 262.652, 29.336 262.786, 31.443 259.777 C 33.447 256.917, 33.408 256.408, 31 254 C 28.292 251.292, 25.384 251.484, 23.408 254.500 M 446.500 270.914 C 444.300 271.943, 438.114 277.227, 432.753 282.657 L 423.007 292.529 439.500 309 L 455.993 325.470 466.101 315.485 C 471.661 309.993, 476.838 304.052, 477.605 302.282 C 479.392 298.159, 479.386 292.648, 477.591 289.175 C 475.078 284.316, 459.722 270.394, 456.069 269.664 C 451.466 268.743, 451.018 268.802, 446.500 270.914 M 310.292 288.197 L 298.095 300.395 292.122 294.697 C 288.836 291.564, 285.665 289, 285.074 289 C 283.403 289, 280 292.810, 280 294.682 C 280 297.385, 295.215 312, 298.030 312 C 299.777 312, 304.286 308.137, 314.712 297.712 C 329.214 283.209, 331.004 280.404, 327.800 277.200 C 325.051 274.451, 322.328 276.162, 310.292 288.197 M 71.932 295.126 C 71.106 296.670, 71.091 297.904, 71.876 299.626 C 72.860 301.787, 73.570 302, 79.779 302 C 86.997 302, 89 301.023, 89 297.500 C 89 293.984, 86.996 293, 79.835 293 C 73.960 293, 72.921 293.280, 71.932 295.126 M 108.932 295.126 C 108.106 296.670, 108.091 297.904, 108.876 299.626 L 109.957 302 177.443 302 L 244.930 302 246.068 299.874 C 246.894 298.330, 246.909 297.096, 246.124 295.374 L 245.043 293 177.557 293 L 110.070 293 108.932 295.126 M 370.012 345.488 L 324.533 390.975 330.998 397.498 L 337.462 404.020 357.990 383.510 C 372.159 369.353, 379.194 363, 380.702 363 C 382.768 363, 386 366.305, 386 368.418 C 386 368.953, 376.676 378.754, 365.280 390.197 L 344.560 411.003 351.014 417.514 L 357.467 424.025 402.733 378.767 C 427.630 353.874, 448 333.042, 448 332.473 C 448 331.903, 445.296 328.762, 441.992 325.492 L 435.984 319.546 423.742 331.639 C 417.009 338.290, 410.764 343.983, 409.865 344.290 C 407.545 345.083, 404 342.295, 404 339.678 C 404 338.187, 407.901 333.578, 416 325.500 C 422.600 318.917, 428 313.060, 428 312.484 C 428 311.477, 416.938 300, 415.967 300 C 415.706 300, 395.026 320.469, 370.012 345.488 M 310.331 341.207 L 297.983 353.415 292.710 348.207 C 288.991 344.535, 286.646 343, 284.754 343 C 282.180 343, 280 345.315, 280 348.049 C 280 348.698, 283.453 352.778, 287.673 357.115 C 293.358 362.956, 296.018 365, 297.936 365 C 299.936 365, 303.770 361.750, 314.763 350.737 C 324.307 341.176, 329 335.761, 329 334.309 C 329 331.768, 326.533 329, 324.268 329 C 323.394 329, 317.122 334.493, 310.331 341.207 M 72.557 348.223 C 70.553 351.083, 70.592 351.592, 73 354 C 75.729 356.729, 84.930 356.839, 87.345 354.171 C 91.445 349.641, 88.166 346, 79.985 346 C 75.051 346, 73.865 346.355, 72.557 348.223 M 109.557 348.223 C 107.553 351.083, 107.592 351.592, 110 354 C 111.959 355.959, 113.333 356, 177.277 356 C 234.740 356, 242.821 355.814, 244.777 354.443 C 247.476 352.553, 247.631 349.881, 245.171 347.655 C 243.508 346.150, 237.345 346, 177.228 346 L 111.113 346 109.557 348.223 M 391.200 350.200 C 388.603 352.797, 391.161 359, 394.829 359 C 396.468 359, 400 355.292, 400 353.571 C 400 349.900, 393.854 347.546, 391.200 350.200 M 73 401 C 70.592 403.408, 70.553 403.917, 72.557 406.777 C 73.865 408.645, 75.051 409, 79.985 409 C 86.237 409, 89 407.463, 89 403.985 C 89 399.190, 77.041 396.959, 73 401 M 110 401 C 107.592 403.408, 107.553 403.917, 109.557 406.777 L 111.113 409 177.485 409 C 236.490 409, 244.032 408.826, 245.429 407.429 C 247.647 405.210, 247.379 402.379, 244.777 400.557 C 242.821 399.186, 234.740 399, 177.277 399 C 113.333 399, 111.959 399.041, 110 401 M 317.433 403.547 C 316.534 405.721, 314.539 410.479, 312.999 414.120 L 310.200 420.740 319.016 429.516 L 327.832 438.291 337.916 434.036 C 343.462 431.695, 348 429.486, 348 429.127 C 348 428.768, 341.490 421.976, 333.534 414.034 L 319.068 399.594 317.433 403.547 M 302.671 439.719 C 300.652 444.590, 299 448.877, 299 449.246 C 299 449.818, 315.666 443.374, 316.953 442.304 C 317.202 442.097, 314.916 439.438, 311.874 436.395 L 306.342 430.863 302.671 439.719" stroke="none" fill="#000000" fill-rule="evenodd"/><path d="M 45.496 108.004 C 43.998 109.660, 43.880 110.442, 44.820 112.504 C 45.848 114.761, 46.531 115, 51.943 115 C 56.838 115, 58.118 114.647, 58.965 113.066 C 59.534 112.002, 60 110.684, 60 110.137 C 60 105.898, 48.882 104.263, 45.496 108.004 M 71.496 108.004 C 69.998 109.660, 69.880 110.442, 70.820 112.504 L 71.957 115 210.279 115 C 316.529 115, 348.878 114.722, 349.800 113.800 C 351.343 112.257, 351.343 108.743, 349.800 107.200 C 348.878 106.278, 316.679 106, 210.955 106 C 74.487 106, 73.294 106.017, 71.496 108.004 M 33 186.918 C 33 214.923, 32.714 238.583, 32.364 239.495 C 32.014 240.407, 30.664 241.558, 29.364 242.052 C 27.371 242.809, 27 243.644, 27 247.367 C 27 251.211, 27.315 251.862, 29.433 252.394 C 33.962 253.530, 33.948 260.309, 29.414 262.033 C 27.353 262.816, 27 263.612, 27 267.475 C 27 270.730, 27.401 272, 28.429 272 C 29.214 272, 30.564 272.707, 31.429 273.571 C 32.837 274.979, 33.002 285.825, 33.016 377.821 L 33.033 480.500 35.266 484.396 C 36.495 486.539, 39.068 489.126, 40.984 490.146 C 44.334 491.928, 50.411 492, 197.848 492 L 351.228 492 354.954 489.906 C 361.840 486.035, 362.458 483.905, 362.828 462.745 L 363.156 443.990 360.828 444.881 C 359.548 445.370, 343.650 451.956, 325.500 459.516 C 300.400 469.970, 291.490 473.251, 288.282 473.221 C 281.070 473.154, 275 467.100, 275 459.975 C 275 458.225, 281.673 440.710, 290.163 420.175 L 305.325 383.500 334.163 354.463 L 363 325.425 363 230.713 L 363 136 198 136 L 33 136 33 186.918 M 119.408 185.500 C 117.891 187.816, 117.891 188.184, 119.408 190.500 L 121.046 193 197.823 193 C 256.205 193, 274.888 192.712, 275.800 191.800 C 276.460 191.140, 277 189.430, 277 188 C 277 186.570, 276.460 184.860, 275.800 184.200 C 274.888 183.288, 256.205 183, 197.823 183 L 121.046 183 119.408 185.500 M 310.331 234.207 L 297.983 246.415 292.710 241.207 C 285.684 234.269, 280 234.188, 280 241.027 C 280 244.495, 294.605 259, 298.098 259 C 300.888 259, 330 230.449, 330 227.713 C 330 225.526, 326.506 222, 324.339 222 C 323.426 222, 317.122 227.493, 310.331 234.207 M 72.571 240.571 C 70.649 242.494, 70.561 245.018, 72.332 247.440 C 74.047 249.785, 82.505 250.608, 86 248.769 C 89.168 247.102, 89.977 242.188, 87.395 240.299 C 84.826 238.421, 74.533 238.610, 72.571 240.571 M 109.571 240.571 C 107.620 242.522, 107.566 245.024, 109.419 247.559 C 110.795 249.442, 112.803 249.507, 176.169 249.747 C 227.400 249.940, 242.040 249.720, 244 248.724 C 247.017 247.191, 247.795 242.938, 245.483 240.626 C 244.015 239.157, 237.431 239, 177.500 239 C 118.509 239, 110.968 239.174, 109.571 240.571 M 309.796 287.693 L 298.102 299.387 292.611 294.193 C 286.895 288.788, 284.230 287.913, 281.571 290.571 C 278.532 293.611, 279.748 296.296, 287.772 304.273 C 293.342 309.810, 296.259 312, 298.065 312 C 299.985 312, 304.092 308.466, 315.293 297.175 C 323.382 289.021, 330 281.921, 330 281.397 C 330 279.043, 326.724 276, 324.188 276 C 322.077 276, 318.943 278.546, 309.796 287.693 M 73.223 293.557 C 71.982 294.426, 71 296.167, 71 297.500 C 71 298.833, 71.982 300.574, 73.223 301.443 C 76.208 303.534, 85.332 303.525, 87.429 301.429 C 89.536 299.321, 89.416 295.686, 87.171 293.655 C 84.790 291.500, 76.244 291.440, 73.223 293.557 M 110.223 293.557 C 108.982 294.426, 108 296.167, 108 297.500 C 108 303.107, 106.633 303, 178.068 303 C 240.372 303, 243.774 302.908, 245.345 301.171 C 247.516 298.772, 247.445 295.713, 245.171 293.655 C 243.509 292.150, 237.391 292, 177.894 292 C 120.276 292, 112.179 292.186, 110.223 293.557 M 310.258 341.232 L 298.026 353.463 291.990 347.490 C 286.026 341.588, 285.920 341.535, 283.226 343.041 C 278.143 345.885, 279.011 348.464, 288.140 357.641 C 292.714 362.238, 297.160 366, 298.020 366 C 299.673 366, 330 336.033, 330 334.400 C 330 332.297, 326.757 329, 324.688 329 C 323.210 329, 318.482 333.008, 310.258 341.232 M 72.035 347.934 C 69.194 353.242, 72.044 356, 80.371 356 C 87.212 356, 89 354.964, 89 351 C 89 346.963, 87.235 346, 79.835 346 C 74.170 346, 72.902 346.315, 72.035 347.934 M 109.035 347.934 C 107.583 350.647, 107.745 352.602, 109.571 354.429 C 110.968 355.825, 118.476 356, 177.137 356 C 220.716 356, 243.788 355.648, 245.066 354.965 C 247.258 353.792, 247.701 349.101, 245.800 347.200 C 244.890 346.290, 228.319 346, 177.335 346 C 111.856 346, 110.043 346.051, 109.035 347.934 M 72.575 400.918 C 68.350 405.585, 73.063 410.370, 81.217 409.692 C 86.928 409.217, 89 407.679, 89 403.913 C 89 400.253, 86.633 399, 79.721 399 C 75.658 399, 73.878 399.478, 72.575 400.918 M 109.575 400.918 C 107.252 403.484, 107.925 407.160, 111 408.710 C 114.631 410.540, 240.364 410.542, 244 408.712 C 247.017 407.193, 247.797 402.940, 245.483 400.626 C 244.015 399.157, 237.438 399, 177.584 399 C 113.530 399, 111.252 399.064, 109.575 400.918" stroke="none" fill="#efefef" fill-rule="evenodd"/><path d="M 43.619 58.034 C 42.035 58.509, 39.630 59.933, 38.274 61.198 C 33.131 66.002, 33 66.893, 33 96.950 L 33 125 198.043 125 L 363.087 125 362.793 96.071 C 362.460 63.211, 362.564 63.643, 353.941 59.224 C 350.049 57.229, 348.264 56.982, 339.500 57.224 L 329.500 57.500 328.996 70.500 C 328.468 84.090, 327.980 85.787, 323.336 90.186 C 317.916 95.320, 309.843 96.492, 303.210 93.106 C 295.039 88.936, 293 84.028, 293 68.532 L 293 57 273.500 57 L 254 57 254 69.040 C 254 78.881, 253.654 81.757, 252.106 84.790 C 245.232 98.258, 227.032 98.371, 219.855 84.991 C 218.337 82.160, 218 79.303, 218 69.266 L 218 57 198.500 57 L 179 57 179 68.532 C 179 84.236, 176.842 89.288, 168.500 93.119 C 161.389 96.385, 154.064 95.302, 148.664 90.186 C 144.011 85.779, 143.522 84.080, 143 70.500 L 142.500 57.500 123.351 57.229 L 104.202 56.958 103.851 69.804 C 103.520 81.935, 103.343 82.887, 100.677 86.913 C 93.260 98.118, 76.574 97.363, 69.814 85.517 C 67.844 82.065, 67.470 79.778, 67.158 69.250 L 66.794 57 56.647 57.086 C 51.066 57.133, 45.204 57.560, 43.619 58.034 M 45.200 107.200 C 43.291 109.109, 43.805 112.750, 46.223 114.443 C 51.046 117.822, 60 115.352, 60 110.643 C 60 107.133, 58.049 106, 52 106 C 48.920 106, 45.860 106.540, 45.200 107.200 M 71.200 107.200 C 69.291 109.109, 69.805 112.750, 72.223 114.443 C 74.208 115.834, 89.047 116, 211.223 116 C 346.667 116, 348.019 115.981, 350 114 C 352.269 111.731, 352.435 110.682, 350.965 107.934 C 349.949 106.036, 347.334 106, 211.165 106 C 104.570 106, 72.122 106.278, 71.200 107.200 M 446.500 270.914 C 444.300 271.943, 438.114 277.227, 432.753 282.657 L 423.007 292.529 439.500 309 L 455.993 325.470 466.101 315.485 C 471.661 309.993, 476.838 304.052, 477.605 302.282 C 479.392 298.159, 479.386 292.648, 477.591 289.175 C 475.078 284.316, 459.722 270.394, 456.069 269.664 C 451.466 268.743, 451.018 268.802, 446.500 270.914 M 333 414.500 C 340.961 422.475, 347.699 429, 347.974 429 C 348.249 429, 341.961 422.475, 334 414.500 C 326.039 406.525, 319.301 400, 319.026 400 C 318.751 400, 325.039 406.525, 333 414.500 M 122.750 492.750 C 164.137 492.894, 231.862 492.894, 273.250 492.750 C 314.637 492.605, 280.775 492.487, 198 492.487 C 115.225 492.487, 81.362 492.605, 122.750 492.750" stroke="none" fill="#fc5d3d" fill-rule="evenodd"/></svg>